<?xml version="1.0" encoding="UTF-8"?>
<svg version="1.1" xmlns="http://www.w3.org/2000/svg" width="360" height="220">
<path d="M0 0 C118.8 0 237.6 0 360 0 C360 72.6 360 145.2 360 220 C241.2 220 122.4 220 0 220 C0 147.4 0 74.8 0 0 Z " fill="#FEFEFE" transform="translate(0,0)"/>
<path d="M0 0 C0.89203125 0.00902344 1.7840625 0.01804688 2.703125 0.02734375 C3.37859375 0.03894531 4.0540625 0.05054688 4.75 0.0625 C7.13153539 4.96491594 9.0505079 9.8508544 10.578125 15.0859375 C12.6324315 21.87060542 15.13347955 28.41576466 17.75 35 C21.24609502 43.92340281 24.47823391 52.73808696 26.75 62.0625 C26.16734375 62.28164062 25.5846875 62.50078125 24.984375 62.7265625 C10.50321577 68.3277656 -4.32419391 75.66327298 -14.25 88.0625 C-14.58 89.0525 -14.91 90.0425 -15.25 91.0625 C-14.66605469 90.31806641 -14.66605469 90.31806641 -14.0703125 89.55859375 C-5.45024032 79.09136324 7.8762724 70.119687 21.6171875 68.6484375 C22.95266553 68.56987997 24.28865814 68.49965544 25.625 68.4375 C26.31335938 68.39882812 27.00171875 68.36015625 27.7109375 68.3203125 C29.39023246 68.22701834 31.07007767 68.14371762 32.75 68.0625 C32.50878418 67.37961914 32.26756836 66.69673828 32.01904297 65.99316406 C27.90219244 54.30624173 23.80040985 42.62372324 20.25 30.75 C20.00749512 29.94014648 19.76499023 29.13029297 19.51513672 28.29589844 C18.42076955 24.57266235 17.42234319 20.890272 16.75 17.0625 C15.1 17.0625 13.45 17.0625 11.75 17.0625 C11.255 14.0925 11.255 14.0925 10.75 11.0625 C14.65028225 8.46231184 18.22434569 8.91164486 22.75 9.0625 C23.16894531 10.18527344 23.58789062 11.30804688 24.01953125 12.46484375 C25.16708168 15.52609737 26.33198513 18.57991729 27.51171875 21.62890625 C31.56504044 32.12988135 35.42330214 42.67688473 39.04760742 53.33422852 C40.39865955 57.28639788 41.75370136 61.17140978 43.48046875 64.9765625 C44.75 68.0625 44.75 68.0625 44.75 72.0625 C43.491875 72.14886719 42.23375 72.23523438 40.9375 72.32421875 C30.74834766 73.12599467 21.57562257 74.6153292 11.9375 78.0390625 C8.75 79.0625 8.75 79.0625 4.75 79.0625 C4.75 79.7225 4.75 80.3825 4.75 81.0625 C3.76 81.43375 2.77 81.805 1.75 82.1875 C-2.77437564 84.1027265 -6.4402173 87.0047783 -10.25 90.0625 C-8.83460938 89.35673828 -8.83460938 89.35673828 -7.390625 88.63671875 C0.52322738 84.76988745 8.05344928 81.77028186 16.75 80.0625 C17.55566406 79.87558594 18.36132812 79.68867188 19.19140625 79.49609375 C22.18864878 78.9881641 25.02421292 78.96661223 28.0625 79 C29.13113281 79.00902344 30.19976562 79.01804687 31.30078125 79.02734375 C32.51314453 79.04474609 32.51314453 79.04474609 33.75 79.0625 C33.75 77.4125 33.75 75.7625 33.75 74.0625 C37.05 74.0625 40.35 74.0625 43.75 74.0625 C45.63343932 77.82937864 45.97057835 79.09208963 45.75 83.0625 C45.10973877 83.08755615 44.46947754 83.1126123 43.80981445 83.13842773 C40.89386274 83.2548546 37.9781971 83.37736867 35.0625 83.5 C34.05509766 83.53931641 33.04769531 83.57863281 32.00976562 83.61914062 C31.03330078 83.66103516 30.05683594 83.70292969 29.05078125 83.74609375 C28.15528564 83.78275146 27.25979004 83.81940918 26.3371582 83.85717773 C23.32697612 84.04490361 23.32697612 84.04490361 18.75 85.0625 C25.35 85.3925 31.95 85.7225 38.75 86.0625 C40.75 91.0625 40.75 91.0625 40.75 94.0625 C40.0075 93.90007812 39.265 93.73765625 38.5 93.5703125 C29.99408835 92.4184703 21.27572131 92.9211127 12.70849609 93.02978516 C10.30073859 93.05640997 7.8959907 93.05439109 5.48828125 93.04296875 C-4.45549196 93.28107506 -14.21049272 96.77716866 -21.25 104.0625 C-21.91 104.0625 -22.57 104.0625 -23.25 104.0625 C-21.97760272 91.54529171 -15.09544542 81.61616857 -6.25 73.0625 C-5.59 72.41667969 -4.93 71.77085937 -4.25 71.10546875 C7.6831427 60.0625 7.6831427 60.0625 14.75 60.0625 C14.15018086 57.89462574 13.54491342 55.7282587 12.9375 53.5625 C12.60105469 52.3559375 12.26460937 51.149375 11.91796875 49.90625 C10.95254645 46.60881241 9.79360565 43.41656057 8.56420898 40.20947266 C7.03094005 36.16642407 5.61736751 32.08050361 4.1875 28 C3.88392578 27.14083984 3.58035156 26.28167969 3.26757812 25.39648438 C-1.25 12.51302083 -1.25 12.51302083 -1.25 7.0625 C-11.15073825 8.20953675 -18.3413115 9.97889346 -26.25 16.0625 C-26.91 16.0625 -27.57 16.0625 -28.25 16.0625 C-24.71539514 8.16061895 -16.92637564 4.28992092 -9.25 1.0625 C-6.11234311 0.05596452 -3.28716758 -0.0432522 0 0 Z " fill="#EE2B2F" transform="translate(235.25,57.9375)"/>
<path d="M0 0 C1.42247003 0.03011718 2.84500098 0.05748995 4.26757812 0.08203125 C7.74215683 0.14793801 11.21444165 0.25135849 14.6875 0.375 C14.6875 3.345 14.6875 6.315 14.6875 9.375 C5.4475 9.375 -3.7925 9.375 -13.3125 9.375 C-13.3125 11.355 -13.3125 13.335 -13.3125 15.375 C-12.6419458 15.35405273 -11.9713916 15.33310547 -11.28051758 15.31152344 C-8.2288322 15.22813973 -5.17738683 15.17626984 -2.125 15.125 C-0.54235352 15.07472656 -0.54235352 15.07472656 1.07226562 15.0234375 C8.93040413 14.92428118 8.93040413 14.92428118 12.86328125 17.265625 C16.14721039 21.06288781 15.96240194 24.02725662 15.90625 28.8984375 C15.54266892 33.01469474 13.91162485 35.21671663 10.98535156 37.9855957 C7.9109279 39.84455714 5.74879951 39.71674499 2.171875 39.66796875 C0.92148438 39.65830078 -0.32890625 39.64863281 -1.6171875 39.63867188 C-2.91914063 39.61353516 -4.22109375 39.58839844 -5.5625 39.5625 C-6.87992188 39.54896484 -8.19734375 39.53542969 -9.5546875 39.52148438 C-12.80770321 39.48612551 -16.059896 39.43677033 -19.3125 39.375 C-19.3125 36.075 -19.3125 32.775 -19.3125 29.375 C-10.0725 29.375 -0.8325 29.375 8.6875 29.375 C8.6875 27.725 8.6875 26.075 8.6875 24.375 C7.63622925 24.42213135 7.63622925 24.42213135 6.5637207 24.47021484 C3.37614458 24.59523852 0.18908414 24.67306632 -3 24.75 C-4.65418945 24.82541016 -4.65418945 24.82541016 -6.34179688 24.90234375 C-14.22775329 25.0452916 -14.22775329 25.0452916 -17.17578125 23.22363281 C-20.1859557 19.92749179 -20.99415513 16.72611397 -20.9375 12.375 C-20.95039063 11.385 -20.96328125 10.395 -20.9765625 9.375 C-20.29378854 6.29046825 -19.52352612 3.89183532 -17.36328125 1.52636719 C-12.33685861 -1.29561009 -5.62343599 -0.20613863 0 0 Z " fill="#858689" transform="translate(212.3125,84.625)"/>
<path d="M0 0 C2.64 0 5.28 0 8 0 C10.171875 2.34375 10.171875 2.34375 11.75 5.5 C12.31332031 6.58796875 12.87664062 7.6759375 13.45703125 8.796875 C13.96621094 9.85390625 14.47539062 10.9109375 15 12 C15.65548828 13.27617188 15.65548828 13.27617188 16.32421875 14.578125 C17.24355186 16.37163099 18.1267384 18.18361588 19 20 C22.64180912 15.93798213 25.02477107 11.42212218 27.53515625 6.62109375 C28.26025391 5.32365234 28.26025391 5.32365234 29 4 C29.39058594 3.22785156 29.78117187 2.45570312 30.18359375 1.66015625 C32 0 32 0 40 0 C40 12.87 40 25.74 40 39 C37.36 39 34.72 39 32 39 C31.505 29.1 31.505 29.1 31 19 C29.72125 21.2275 28.4425 23.455 27.125 25.75 C26.72555176 26.44448242 26.32610352 27.13896484 25.91455078 27.85449219 C24.19064082 30.86460399 22.50088061 33.87184884 21 37 C17.60383846 35.61521827 16.29213028 34.34037438 14.640625 31.0859375 C14.28516602 30.40063965 13.92970703 29.7153418 13.56347656 29.00927734 C13.1300293 28.13996582 12.69658203 27.2706543 12.25 26.375 C10.8475 23.61125 9.445 20.8475 8 18 C7.67 24.6 7.34 31.2 7 38 C4.69 38 2.38 38 0 38 C0 25.46 0 12.92 0 0 Z " fill="#87888B" transform="translate(149,85)"/>
<path d="M0 0 C10.89 0 21.78 0 33 0 C33 2.97 33 5.94 33 9 C24.42 9 15.84 9 7 9 C7 10.98 7 12.96 7 15 C14.92 15 22.84 15 31 15 C31 17.97 31 20.94 31 24 C23.08 24 15.16 24 7 24 C7 25.65 7 27.3 7 29 C15.58 29 24.16 29 33 29 C33 32.3 33 35.6 33 39 C22.11 39 11.22 39 0 39 C0 26.13 0 13.26 0 0 Z " fill="#858789" transform="translate(113,85)"/>
<path d="M0 0 C0.89203125 0.00902344 1.7840625 0.01804688 2.703125 0.02734375 C3.37859375 0.03894531 4.0540625 0.05054688 4.75 0.0625 C7.13153539 4.96491594 9.0505079 9.8508544 10.578125 15.0859375 C12.6324315 21.87060542 15.13347955 28.41576466 17.75 35 C21.24609502 43.92340281 24.47823391 52.73808696 26.75 62.0625 C26.16734375 62.28164062 25.5846875 62.50078125 24.984375 62.7265625 C11.27913578 68.02764559 -8.25390428 76.07030855 -15.25 90.0625 C-15.91 90.0625 -16.57 90.0625 -17.25 90.0625 C-16.72966333 81.73711321 -8.62466564 74.94504351 -3.05078125 69.47265625 C1.78552057 65.31087352 8.14767076 60.0625 14.75 60.0625 C14.15018086 57.89462574 13.54491342 55.7282587 12.9375 53.5625 C12.60105469 52.3559375 12.26460937 51.149375 11.91796875 49.90625 C10.95254645 46.60881241 9.79360565 43.41656057 8.56420898 40.20947266 C7.03094005 36.16642407 5.61736751 32.08050361 4.1875 28 C3.88392578 27.14083984 3.58035156 26.28167969 3.26757812 25.39648438 C-1.25 12.51302083 -1.25 12.51302083 -1.25 7.0625 C-11.15073825 8.20953675 -18.3413115 9.97889346 -26.25 16.0625 C-26.91 16.0625 -27.57 16.0625 -28.25 16.0625 C-24.71539514 8.16061895 -16.92637564 4.28992092 -9.25 1.0625 C-6.11234311 0.05596452 -3.28716758 -0.0432522 0 0 Z " fill="#ED292D" transform="translate(235.25,57.9375)"/>
<path d="M0 0 C10.89 0 21.78 0 33 0 C33 2.97 33 5.94 33 9 C24.42 9 15.84 9 7 9 C7 10.98 7 12.96 7 15 C14.92 15 22.84 15 31 15 C31 17.97 31 20.94 31 24 C23.08 24 15.16 24 7 24 C7 28.62 7 33.24 7 38 C4.69 38 2.38 38 0 38 C0 25.46 0 12.92 0 0 Z " fill="#838487" transform="translate(78,85)"/>
<path d="M0 0 C3.3 0 6.6 0 10 0 C11.88343932 3.76687864 12.22057835 5.02958963 12 9 C11.35973877 9.02505615 10.71947754 9.0501123 10.05981445 9.07592773 C7.14386274 9.1923546 4.2281971 9.31486867 1.3125 9.4375 C0.30509766 9.47681641 -0.70230469 9.51613281 -1.74023438 9.55664062 C-2.71669922 9.59853516 -3.69316406 9.64042969 -4.69921875 9.68359375 C-5.59471436 9.72025146 -6.49020996 9.75690918 -7.4128418 9.79467773 C-10.42302388 9.98240361 -10.42302388 9.98240361 -15 11 C-8.4 11.33 -1.8 11.66 5 12 C7 17 7 17 7 20 C6.2575 19.83757812 5.515 19.67515625 4.75 19.5078125 C-3.75591165 18.3559703 -12.47427869 18.8586127 -21.04150391 18.96728516 C-23.44926141 18.99390997 -25.8540093 18.99189109 -28.26171875 18.98046875 C-38.20549196 19.21857506 -47.96049272 22.71466866 -55 30 C-55.66 30 -56.32 30 -57 30 C-56.49228528 24.03435204 -54.61407872 19.36190101 -52 14 C-50 17 -50 17 -49 19 C-48.443125 18.54625 -47.88625 18.0925 -47.3125 17.625 C-44.91799385 15.94237406 -42.71700754 15.06853074 -40 14 C-38.31064991 13.19135375 -36.62322923 12.37866755 -34.9375 11.5625 C-29.11461821 8.89138102 -23.2510749 7.32544282 -17 6 C-16.18917969 5.81050781 -15.37835938 5.62101563 -14.54296875 5.42578125 C-11.55245553 4.92506552 -8.71800336 4.90419777 -5.6875 4.9375 C-4.08455078 4.95103516 -4.08455078 4.95103516 -2.44921875 4.96484375 C-1.64097656 4.97644531 -0.83273437 4.98804688 0 5 C0 3.35 0 1.7 0 0 Z " fill="#EF393A" transform="translate(269,132)"/>
<path d="M0 0 C2 3 2 3 2 6 C3.65 6 5.3 6 7 6 C7.96305013 8.6650444 8.92051716 11.33188751 9.875 14 C10.14441406 14.74378906 10.41382813 15.48757812 10.69140625 16.25390625 C11.95088377 19.7865871 13.11273192 23.2774246 13.97265625 26.9296875 C15.34279734 32.69284345 17.49419702 38.19641381 19.52148438 43.75390625 C21.10268413 48.16515143 22.43966884 52.31778074 23 57 C22.06800781 57.08636719 21.13601563 57.17273438 20.17578125 57.26171875 C2.08461308 59.25558865 -12.90007152 66.10627183 -24.70703125 80.34765625 C-25.13371094 80.89292969 -25.56039062 81.43820313 -26 82 C-26 76.50784349 -20.91845195 72.92682947 -17.2109375 69.203125 C-8.57817723 61.19486228 1.48871546 55.80123079 12.515625 51.91015625 C14.90950176 51.23073575 14.90950176 51.23073575 16 50 C12.28900046 38.41015485 8.37317484 26.97885634 3.66601562 15.75097656 C1.64903601 10.88373989 0.04839677 6.1724769 -1 1 C-0.67 0.67 -0.34 0.34 0 0 Z " fill="#FDE7E3" transform="translate(245,69)"/>
<path d="M0 0 C0.73476563 -0.01417969 1.46953125 -0.02835938 2.2265625 -0.04296875 C4.375 0.1875 4.375 0.1875 8.375 2.1875 C5.075 2.1875 1.775 2.1875 -1.625 2.1875 C-1.625 3.8375 -1.625 5.4875 -1.625 7.1875 C-3.25695312 7.35185547 -3.25695312 7.35185547 -4.921875 7.51953125 C-17.59622615 8.85573069 -28.79024606 10.77225005 -40.08276367 16.93823242 C-41.56949928 17.74084416 -43.09493174 18.47093911 -44.625 19.1875 C-45.285 18.8575 -45.945 18.5275 -46.625 18.1875 C-45.18851736 17.06120125 -43.75077415 15.9365101 -42.3125 14.8125 C-41.51199219 14.18601563 -40.71148437 13.55953125 -39.88671875 12.9140625 C-35.0050905 9.1875 -35.0050905 9.1875 -30.625 9.1875 C-30.625 8.5275 -30.625 7.8675 -30.625 7.1875 C-27.41852624 6.20217265 -24.20951996 5.22535481 -21 4.25 C-20.09636719 3.97220703 -19.19273437 3.69441406 -18.26171875 3.40820312 C-12.19085179 1.56921788 -6.38457671 0.05640085 0 0 Z " fill="#FDF1EE" transform="translate(270.625,129.8125)"/>
<path d="M0 0 C1.25664978 2.90600261 2 4.79604584 2 8 C0.82824219 7.7834375 0.82824219 7.7834375 -0.3671875 7.5625 C-13.20688962 5.50357227 -26.02781357 5.8083872 -39 6 C-38.67 5.01 -38.34 4.02 -38 3 C-25.31931737 -0.36548923 -13.04837208 -0.33160857 0 0 Z " fill="#ED272B" transform="translate(274,144)"/>
<path d="M0 0 C0 0.33 0 0.66 0 1 C-4.95 1.66 -9.9 2.32 -15 3 C-15 3.66 -15 4.32 -15 5 C-6.75 5 1.5 5 10 5 C10 5.33 10 5.66 10 6 C9.16452637 6.02392822 8.32905273 6.04785645 7.46826172 6.07250977 C-15.8931608 5.97901446 -15.8931608 5.97901446 -35.70703125 16.72265625 C-37 18 -37 18 -39 18 C-38.49228528 12.03435204 -36.61407872 7.36190101 -34 2 C-32 5 -32 5 -31 7 C-29.68 6.01 -28.36 5.02 -27 4 C-26.67 4.66 -26.34 5.32 -26 6 C-25.14277344 5.66226563 -24.28554687 5.32453125 -23.40234375 4.9765625 C-6.54940146 -1.59741499 -6.54940146 -1.59741499 0 0 Z " fill="#F47C73" transform="translate(251,144)"/>
<path d="M0 0 C2 3 2 3 3 5 C4.32 4.01 5.64 3.02 7 2 C6.04211957 8.94463315 6.04211957 8.94463315 3.15625 11.8671875 C-2.30143541 16 -2.30143541 16 -5 16 C-4.49228528 10.03435204 -2.61407872 5.36190101 0 0 Z " fill="#F26858" transform="translate(217,146)"/>
<path d="M0 0 C0.66 0.33 1.32 0.66 2 1 C0.515 2.485 0.515 2.485 -1 4 C-0.67 4.66 -0.34 5.32 0 6 C-1.79033807 7.31431172 -3.58231203 8.6263953 -5.375 9.9375 C-6.37273437 10.66839844 -7.37046875 11.39929688 -8.3984375 12.15234375 C-11 14 -11 14 -13 15 C-11.21169455 8.44288001 -5.46175262 3.71399178 0 0 Z " fill="#EF3A39" transform="translate(232,137)"/>
<path d="M0 0 C0.99 0.66 1.98 1.32 3 2 C2.31035156 2.38929688 1.62070313 2.77859375 0.91015625 3.1796875 C-6.3748805 7.5167327 -11.65548397 12.44142107 -17 19 C-17 14.06980492 -13.31718332 11.40431384 -10 8 C-3.16564417 1.58282209 -3.16564417 1.58282209 0 0 Z " fill="#FACABF" transform="translate(236,132)"/>
<path d="M0 0 C0.66 0.33 1.32 0.66 2 1 C0.68884949 4.93345152 -0.84212778 5.32374076 -4.4375 7.25 C-5.92056641 8.06210938 -5.92056641 8.06210938 -7.43359375 8.890625 C-8.28050781 9.25671875 -9.12742188 9.6228125 -10 10 C-10.66 9.67 -11.32 9.34 -12 9 C-10.56351736 7.87370125 -9.12577415 6.7490101 -7.6875 5.625 C-6.88699219 4.99851563 -6.08648437 4.37203125 -5.26171875 3.7265625 C-3.55336788 2.42243282 -1.78827274 1.19218183 0 0 Z " fill="#FBD0C8" transform="translate(236,139)"/>
<path d="M0 0 C-1 2 -1 2 -2.625 2.625 C-5.7660575 3.12095645 -8.82601831 3.06103811 -12 3 C-11 1 -11 1 -9.2578125 0.33203125 C-8.55398437 0.16058594 -7.85015625 -0.01085937 -7.125 -0.1875 C-6.42632812 -0.36667969 -5.72765625 -0.54585937 -5.0078125 -0.73046875 C-3 -1 -3 -1 0 0 Z " fill="#ED2026" transform="translate(250,141)"/>
<path d="M0 0 C0.66 0.33 1.32 0.66 2 1 C-0.10478982 3.94670574 -2.30857363 6.56903425 -5 9 C-5.66 9 -6.32 9 -7 9 C-5.44499019 5.18315774 -2.96404505 2.80804268 0 0 Z " fill="#F2615A" transform="translate(214,65)"/>
</svg>
