<svg width="24" height="24" viewBox="0 0 24 24" fill="none" xmlns="http://www.w3.org/2000/svg">
<path d="M4.2 19.8002C4.54436 19.4145 6.85785 17.5975 8.00775 16.7018C8.42656 16.3756 8.94027 16.2002 9.47114 16.2002C10.7548 16.2002 13.2284 16.2002 14.5182 16.2002C15.0553 16.2002 15.5741 16.3831 16.0066 16.7016C17.4913 17.7954 18.8833 18.6105 20.4 19.8002M6 21.5999H18C19.9882 21.5999 21.6 19.9881 21.6 17.9999V5.9999C21.6 4.01168 19.9882 2.3999 18 2.3999H6C4.01178 2.3999 2.4 4.01168 2.4 5.9999V17.9999C2.4 19.9881 4.01178 21.5999 6 21.5999ZM15.4385 9.27194C15.4385 7.44043 13.8924 5.94398 12 5.94398C10.1076 5.94398 8.56145 7.44043 8.56145 9.27194C8.56145 11.1035 10.1076 12.5999 12 12.5999C13.8924 12.5999 15.4385 11.1035 15.4385 9.27194Z" stroke="#333333" stroke-width="1.5"/>
</svg>
