<?xml version="1.0" encoding="UTF-8"?>
<svg version="1.1" xmlns="http://www.w3.org/2000/svg" width="360" height="360">
<path d="M0 0 C13.95518962 -0.68820113 13.95518962 -0.68820113 17.8125 1.75 C20.02894226 4.02976918 20.47936797 4.98033422 21 8 C21.99 8.33 22.98 8.66 24 9 C26.69058578 13.03587867 26.12802062 15.57486013 25.61328125 20.26953125 C24.68838642 24.38737511 23.03652062 26.1080756 20 29 C18.99764983 29.9976443 17.99708031 30.99708881 17 32 C21.39346141 39.59220962 27.07101274 42.61285981 35 46 C35 46.66 35 47.32 35 48 C35.57492188 48.03738281 36.14984375 48.07476562 36.7421875 48.11328125 C40.13620942 49.44622758 41.37131543 52.16356102 43.125 55.1875 C43.80820313 56.31542969 44.49140625 57.44335938 45.1953125 58.60546875 C46.84539465 61.7091947 48.00974348 64.63619048 49 68 C49.66 68 50.32 68 51 68 C51.18175781 67.10796875 51.36351562 66.2159375 51.55078125 65.296875 C51.92783203 63.54117188 51.92783203 63.54117188 52.3125 61.75 C52.55613281 60.58984375 52.79976562 59.4296875 53.05078125 58.234375 C53.97036389 55.10098231 55.07151111 53.54336941 57 51 C56.17632322 47.16425553 56.17632322 47.16425553 54 44 C53.62246329 39.09202272 53.7365385 35.82612727 57 32 C59.5625 31.125 59.5625 31.125 62 31 C62.66 31.33 63.32 31.66 64 32 C64 29.69 64 27.38 64 25 C67.3 25.33 70.6 25.66 74 26 C75.34667285 34.20246193 74.6136756 41.07837526 72 49 C71.01 49.99 71.01 49.99 70 51 C69.67870666 53.1945321 69.67870666 53.1945321 69.69140625 55.7265625 C69.66626953 56.67660156 69.64113281 57.62664062 69.61523438 58.60546875 C69.58048846 60.5949941 69.54915481 62.58458241 69.52148438 64.57421875 C69.34997345 70.79044393 68.333323 75.25831513 66 81 C65.5847121 84.1444645 65.5847121 84.1444645 65.5625 87.125 C65.14302063 93.91371716 63.07864952 97.42921543 58 102 C58.928125 102.53625 59.85625 103.0725 60.8125 103.625 C65.09131009 106.81313301 66.32179216 109.82004623 67.875 114.8125 C68.02576126 118.65691212 67.06152633 121.39182178 65.69140625 124.94921875 C64.8402626 127.11309797 64.8402626 127.11309797 65 130 C66.31337396 131.0260734 67.64664105 132.02727325 69 133 C69 133.66 69 134.32 69 135 C70.32 135.66 71.64 136.32 73 137 C73 137.66 73 138.32 73 139 C73.57234375 139.2165625 74.1446875 139.433125 74.734375 139.65625 C77.74885559 141.44414884 79.22666458 143.65234274 81.25 146.5 C81.95640625 147.4796875 82.6628125 148.459375 83.390625 149.46875 C85 152 85 152 85 154 C85.66 154 86.32 154 87 154 C90.3261876 160.4773127 93.69572335 167.08717004 96 174 C97.98 173.67 99.96 173.34 102 173 C102 173.99 102 174.98 102 176 C99.525 176.99 99.525 176.99 97 178 C97.309375 178.804375 97.61875 179.60875 97.9375 180.4375 C100.24052908 188.15942103 100.13487581 196.06218935 100.0625 204.0625 C100.05798828 205.02349609 100.05347656 205.98449219 100.04882812 206.97460938 C100.03717706 209.31647422 100.02082025 211.65820181 100 214 C101.65 214 103.3 214 105 214 C105.33 215.32 105.66 216.64 106 218 C104.02 218 102.04 218 100 218 C99.66259915 219.91595482 99.33023588 221.83279722 99 223.75 C98.814375 224.81734375 98.62875 225.8846875 98.4375 226.984375 C97.90428357 230.15189374 97.90428357 230.15189374 98 234 C97.34 234.33 96.68 234.66 96 235 C95.3041972 236.74577676 95.3041972 236.74577676 94.75 238.875 C91.11046583 250.37592799 83.86890579 262.81331773 75 271 C73.4506636 272.82924195 71.93213515 274.67896712 70.4296875 276.546875 C69 278 69 278 66 279 C65.67 279.66 65.34 280.32 65 281 C64.01 281 63.02 281 62 281 C61.67 281.99 61.34 282.98 61 284 C58.85125797 285.43741396 56.76126401 286.70434841 54.5 287.9375 C53.85925537 288.29231445 53.21851074 288.64712891 52.55834961 289.01269531 C35.74468867 298.22577631 20.02947864 300.93823957 1 301 C-0.0842627 301.00604248 -0.0842627 301.00604248 -1.19042969 301.01220703 C-25.30219008 300.9115934 -47.89174949 288.29028028 -65 272 C-66.77671281 269.94839955 -68.35055848 267.9125363 -69.8515625 265.65625 C-70.95453265 263.95352604 -70.95453265 263.95352604 -72.46875 262.56640625 C-82.98269244 251.81107228 -89.00756866 233.63836228 -90 219 C-90.99 219.33 -91.98 219.66 -93 220 C-93 216 -93 216 -92 215 C-91.8364003 212.16427191 -91.72067638 209.33812422 -91.625 206.5 C-90.46558243 180.67373009 -82.64219976 155.55092627 -63.86328125 136.875 C-60.96335964 134.31202166 -58.11145811 132.06862109 -54.80859375 130.03515625 C-52.65104797 128.23196057 -52.05944375 127.27525216 -51.45825195 124.49145508 C-51.2559384 121.43982816 -51.21593758 118.43304843 -51.25 115.375 C-51.2423505 113.29943445 -51.2270724 111.22387899 -51.203125 109.1484375 C-51.20989258 108.23239746 -51.21666016 107.31635742 -51.22363281 106.37255859 C-51 104 -51 104 -49 101 C-48.34 101 -47.68 101 -47 101 C-46.505 99.515 -46.505 99.515 -46 98 C-43.9375 97.3125 -43.9375 97.3125 -42 97 C-42.33 96.34 -42.66 95.68 -43 95 C-43.45070025 89.00759102 -42.64277513 85.2090254 -39.5625 80 C-39.20776611 79.36916504 -38.85303223 78.73833008 -38.48754883 78.08837891 C-37.73163968 76.74787146 -36.9683467 75.41150461 -36.19824219 74.07910156 C-34.96899228 71.94619769 -33.76666406 69.79994845 -32.5703125 67.6484375 C-23.0196723 50.50100491 -23.0196723 50.50100491 -19 47 C-18.34 47 -17.68 47 -17 47 C-17 46.34 -17 45.68 -17 45 C-10.375 42 -10.375 42 -7 42 C-6.896875 40.7625 -6.79375 39.525 -6.6875 38.25 C-6.3869774 34.64372883 -5.3240106 32.76638259 -3 30 C-3.5053125 29.55011719 -4.010625 29.10023437 -4.53125 28.63671875 C-8.42197511 24.7845921 -10.52525236 22.03118069 -10.6875 16.4375 C-10.36725309 11.32778263 -8.94304754 8.13866061 -6 4 C-4.68 4 -3.36 4 -2 4 C-1.34 2.68 -0.68 1.36 0 0 Z M41 96 C41 97.65 41 99.3 41 101 C42.65 101 44.3 101 46 101 C44.35 99.35 42.7 97.7 41 96 Z " fill="#451068" transform="translate(171,30)"/>
<path d="M0 0 C0.61101562 0.44085938 1.22203125 0.88171875 1.8515625 1.3359375 C15.29165895 11.84596553 24.64288832 29.61267459 27.60546875 46.203125 C30.20904696 71.25934299 25.48305157 92.92776483 9.76953125 112.82421875 C-3.2914029 127.91942229 -20.06903583 137.8813542 -40 140 C-62.34125354 141.54372631 -82.75720631 138.6188386 -100.49609375 123.93359375 C-116.14466051 110.23812056 -128.59038064 92.43455167 -130.22314453 71.08178711 C-131.04190751 48.42757245 -127.65819717 27.74592909 -112.7421875 9.83984375 C-110.01450109 6.95926012 -107.10349562 4.47012917 -104 2 C-103.81824219 2.90363281 -103.63648437 3.80726563 -103.44921875 4.73828125 C-103.19785156 5.91777344 -102.94648437 7.09726563 -102.6875 8.3125 C-102.32205078 10.07013672 -102.32205078 10.07013672 -101.94921875 11.86328125 C-101.30368282 14.95185452 -101.30368282 14.95185452 -99.51513672 16.37133789 C-93.08121027 23.2873423 -95.88472438 38.99886418 -96.11645508 47.96191406 C-96.16491248 49.99282837 -96.19461633 52.02340369 -96.22265625 54.0546875 C-96.25109619 55.24562012 -96.27953613 56.43655273 -96.30883789 57.66357422 C-95.96064184 61.42519262 -94.9652639 63.79375191 -93 67 C-89.55258453 68.72370774 -85.76964661 68.50306672 -82 68 C-79.49839182 66.12379387 -78.38054348 64.76108697 -77 62 C-76.19828835 55.8754487 -77.32193443 50.43029768 -79 44.5625 C-80.76561745 38.24481642 -81.38505945 32.30813046 -81.375 25.75 C-81.37628906 24.93990479 -81.37757813 24.12980957 -81.37890625 23.29516602 C-81.27190112 17.54060026 -81.27190112 17.54060026 -80.00488281 15.02148438 C-78.88156853 12.76175593 -78.69343363 11.18011797 -78.5859375 8.671875 C-78.54726562 7.87265625 -78.50859375 7.0734375 -78.46875 6.25 C-78.4378125 5.425 -78.406875 4.6 -78.375 3.75 C-78.33632812 2.90953125 -78.29765625 2.0690625 -78.2578125 1.203125 C-78.16384164 -0.86423382 -78.08084436 -2.93208627 -78 -5 C-69.31008699 -5.79645684 -60.72542301 -6.12852505 -52 -6 C-52 -5.01 -52 -4.02 -52 -3 C-51.34 -3 -50.68 -3 -50 -3 C-50 -4.32 -50 -5.64 -50 -7 C-48.88625 -6.835 -47.7725 -6.67 -46.625 -6.5 C-37.69472136 -5.44389748 -29.73310745 -6.19371311 -20.97680664 -8.10839844 C-11.9465968 -9.94166926 -6.96105086 -5.16040048 0 0 Z " fill="#FCF1E0" transform="translate(227,174)"/>
<path d="M0 0 C2.33744076 13.90521327 2.33744076 13.90521327 -0.62109375 18.5390625 C-2.17553462 19.93455708 -3.76572159 21.29089382 -5.3828125 22.61328125 C-16.25416863 32.527309 -23.1278548 50.52076147 -24.22143555 64.91455078 C-25.11217477 89.220906 -20.89095536 110.62158282 -4 129 C-3.35160156 129.71671875 -2.70320313 130.4334375 -2.03515625 131.171875 C10.27360296 144.13872629 28.31309347 152.60453145 46.203125 153.23828125 C70.92113226 153.69750275 90.55680307 149.28306035 109 132 C124.47017769 116.94718322 131.74102317 97.95273842 132.28393555 76.67138672 C132.50481727 56.4975227 126.95060358 37.97949842 113 23 C112.175 22.113125 111.35 21.22625 110.5 20.3125 C109.675 19.549375 108.85 18.78625 108 18 C107.40574219 17.44699219 106.81148437 16.89398438 106.19921875 16.32421875 C101.76212505 12.30067941 97.18586957 8.99290877 92 6 C94.58157968 3.41842032 96.90464065 2.85739557 100.375 1.75 C101.51710937 1.37359375 102.65921875 0.9971875 103.8359375 0.609375 C107 0 107 0 109.18359375 0.69921875 C112.69630497 3.21477324 115.82331033 6.07676962 119 9 C119.72703125 9.63808594 120.4540625 10.27617187 121.203125 10.93359375 C135.50734395 24.16249555 145.34584605 45.37722142 146.10986328 64.79174805 C146.17020856 67.94516916 146.1856023 71.09602181 146.1875 74.25 C146.19974609 75.30574219 146.21199219 76.36148438 146.22460938 77.44921875 C146.26563033 99.79196797 137.98393008 121.93407575 122.75 138.4375 C121.8425 139.283125 120.935 140.12875 120 141 C119.29101562 141.67933594 118.58203125 142.35867188 117.8515625 143.05859375 C97.1011013 162.46714815 71.76120499 169.03492427 43.98632812 168.17919922 C19.90459474 166.73413772 -0.44722041 153.34037228 -16.625 136.25 C-21.55775243 130.63746897 -25.31524352 124.47869272 -29 118 C-29.70962891 116.8553125 -29.70962891 116.8553125 -30.43359375 115.6875 C-38.37456178 101.83409782 -40.10399714 84.63878757 -39 69 C-38.93184082 67.90945312 -38.93184082 67.90945312 -38.86230469 66.796875 C-37.22241523 42.92854843 -25.80055358 20.97262387 -8 5 C-7.16275391 4.24396484 -7.16275391 4.24396484 -6.30859375 3.47265625 C-2.31648199 0 -2.31648199 0 0 0 Z " fill="#5751BB" transform="translate(122,160)"/>
<path d="M0 0 C1.33333333 0.66666667 2.66666667 1.33333333 4 2 C4.721875 2.2475 5.44375 2.495 6.1875 2.75 C8 4 8 4 8.75 7.125 C8.8325 8.07375 8.915 9.0225 9 10 C12.465 9.505 12.465 9.505 16 9 C15.01 12.3 14.02 15.6 13 19 C12.34 19 11.68 19 11 19 C11.185625 20.093125 11.37125 21.18625 11.5625 22.3125 C12 26 12 26 11 29 C4.4 29 -2.2 29 -9 29 C-9 29.66 -9 30.32 -9 31 C-0.75 31 7.5 31 16 31 C16 31.66 16 32.32 16 33 C21.28 33 26.56 33 32 33 C32 31.68 32 30.36 32 29 C25.73 29 19.46 29 13 29 C14.95136355 21.1945458 17.37172086 14.33745633 24.12890625 9.46484375 C26.28975519 8.05083155 26.28975519 8.05083155 27 5 C36.61439505 7.48535382 41.60576 11.31911928 46.6875 19.875 C49.2587929 24.51954258 51.69986547 29.21572017 54 34 C56.67149708 28.39763719 58.67594074 23.06860493 60 17 C64.12751449 17.60698743 67.3321148 19.03810791 71 21 C71.30741419 27.19382671 71.25133252 32.0810181 68.72265625 37.76171875 C67.44709395 41.71251443 67.52479961 45.82468009 67.40625 49.94921875 C66.95000914 53.37541214 66.04981337 55.2395202 64 58 C59.99833063 60.66777958 56.70623152 60.83537677 52 60 C49.0625 57.625 49.0625 57.625 47 55 C46.34 54.34 45.68 53.68 45 53 C44.69940057 50.63490639 44.50484988 48.25558119 44.375 45.875 C44.26285156 43.95300781 44.26285156 43.95300781 44.1484375 41.9921875 C44.09945312 41.00476563 44.05046875 40.01734375 44 39 C38.25367578 36.04469232 33.85273058 35.63336888 27.453125 35.890625 C26.56010681 35.91469421 25.66708862 35.93876343 24.74700928 35.96356201 C22.87099004 36.01695618 20.99517183 36.07789429 19.11962891 36.14599609 C16.2453808 36.25016741 13.37116104 36.33218666 10.49609375 36.41015625 C8.66923212 36.46486804 6.84240695 36.52081436 5.015625 36.578125 C4.15624329 36.60424866 3.29686157 36.63037231 2.41143799 36.6572876 C1.61340759 36.68691589 0.8153772 36.71654419 -0.00683594 36.74707031 C-0.70742126 36.77166321 -1.40800659 36.7962561 -2.12982178 36.82159424 C-4.22762084 36.95103587 -4.22762084 36.95103587 -7 38 C-7.33 40.31 -7.66 42.62 -8 45 C-9.32 45 -10.64 45 -12 45 C-12.495 38.565 -12.495 38.565 -13 32 C-13.33 35.96 -13.66 39.92 -14 44 C-15.546875 43.95875 -17.09375 43.9175 -18.6875 43.875 C-22.58073729 43.86395536 -25.49889335 44.13274312 -29 46 C-28.2575 45.7525 -28.2575 45.7525 -27.5 45.5 C-22.3020554 44.46041108 -17.12177191 44.71955702 -12 46 C-12.33 46.61875 -12.66 47.2375 -13 47.875 C-14.40387684 52.26211512 -14.15967523 56.43151427 -14 61 C-20.70638552 62.4500293 -28.14756597 63.73383245 -34.1875 60.0625 C-36.72814021 55.76969412 -37.12698751 52.75839169 -36 48 C-34.03514097 43.24408785 -31.70359662 38.75868721 -29.22802734 34.25146484 C-27.95002156 31.90836955 -26.71762604 29.54472724 -25.48828125 27.17578125 C-24.63975407 25.57460112 -23.78952799 23.97432001 -22.9375 22.375 C-22.55094238 21.62935791 -22.16438477 20.88371582 -21.76611328 20.11547852 C-17.86293347 12.96612986 -12.60310536 8.11036128 -5 5 C-4.01 5 -3.02 5 -2 5 C-2 4.01 -2 3.02 -2 2 C-1.34 2 -0.68 2 0 2 C0 1.34 0 0.68 0 0 Z " fill="#EFBA42" transform="translate(167,69)"/>
<path d="M0 0 C13.95518962 -0.68820113 13.95518962 -0.68820113 17.8125 1.75 C20.02894226 4.02976918 20.47936797 4.98033422 21 8 C21.99 8.33 22.98 8.66 24 9 C26.69058578 13.03587867 26.12802062 15.57486013 25.61328125 20.26953125 C24.68838642 24.38737511 23.03652062 26.1080756 20 29 C18.99764983 29.9976443 17.99708031 30.99708881 17 32 C21.39346141 39.59220962 27.07101274 42.61285981 35 46 C35 46.66 35 47.32 35 48 C35.57492188 48.03738281 36.14984375 48.07476562 36.7421875 48.11328125 C40.13620942 49.44622758 41.37131543 52.16356102 43.125 55.1875 C44.14980469 56.87939453 44.14980469 56.87939453 45.1953125 58.60546875 C46.84539465 61.7091947 48.00974348 64.63619048 49 68 C49.66 68 50.32 68 51 68 C51.18175781 67.10796875 51.36351562 66.2159375 51.55078125 65.296875 C51.80214844 64.12640625 52.05351562 62.9559375 52.3125 61.75 C52.55613281 60.58984375 52.79976563 59.4296875 53.05078125 58.234375 C53.97036389 55.10098231 55.07151111 53.54336941 57 51 C56.17632322 47.16425553 56.17632322 47.16425553 54 44 C53.62246329 39.09202272 53.7365385 35.82612727 57 32 C59.5625 31.125 59.5625 31.125 62 31 C62.66 31.33 63.32 31.66 64 32 C64 29.69 64 27.38 64 25 C67.3 25.33 70.6 25.66 74 26 C75.34667285 34.20246193 74.6136756 41.07837526 72 49 C71.01 49.99 71.01 49.99 70 51 C69.67870666 53.1945321 69.67870666 53.1945321 69.69140625 55.7265625 C69.66626953 56.67660156 69.64113281 57.62664062 69.61523438 58.60546875 C69.58048846 60.5949941 69.54915481 62.58458241 69.52148438 64.57421875 C69.35194706 70.71891254 68.50608917 75.37299446 66 81 C65.34 81 64.68 81 64 81 C64 82.98 64 84.96 64 87 C63.67 87 63.34 87 63 87 C62.76472766 82.60824962 62.7025922 79.25526925 64.4375 75.1875 C66.51489726 70.27817911 66.71883511 65.27426558 67 60 C66.113125 59.71125 65.22625 59.4225 64.3125 59.125 C61.49528665 58.16821056 58.75572395 57.11731227 56 56 C55.90203125 56.70125 55.8040625 57.4025 55.703125 58.125 C54.70025836 64.48801593 53.17338469 69.39368706 50 75 C49.71479492 74.42564209 49.42958984 73.85128418 49.13574219 73.25952148 C47.24115916 69.49031128 45.25366033 65.77463855 43.25 62.0625 C42.83234375 61.26392578 42.4146875 60.46535156 41.984375 59.64257812 C38.31065904 52.88316477 34.4114242 48.6683099 27.125 45.6875 C26.34382813 45.36136719 25.56265625 45.03523438 24.7578125 44.69921875 C24.17773438 44.46847656 23.59765625 44.23773438 23 44 C22.88140625 44.61230469 22.7628125 45.22460938 22.640625 45.85546875 C21.67923868 49.07376808 19.38366378 50.6705104 17 53 C13.10007715 57.65253954 10.91495184 62.25514449 9 68 C9.57524414 67.83701416 10.15048828 67.67402832 10.74316406 67.50610352 C12.95708107 67.00962472 14.84673797 66.88520256 17.109375 66.90234375 C17.86347656 66.90556641 18.61757812 66.90878906 19.39453125 66.91210938 C20.17183594 66.92048828 20.94914062 66.92886719 21.75 66.9375 C22.54277344 66.94201172 23.33554688 66.94652344 24.15234375 66.95117188 C26.10159508 66.96291435 28.05080738 66.98084854 30 67 C29.01 67.495 29.01 67.495 28 68 C28 69.32 28 70.64 28 72 C22.72 72 17.44 72 12 72 C12 71.34 12 70.68 12 70 C3.75 70 -4.5 70 -13 70 C-13 69.34 -13 68.68 -13 68 C-6.4 68 0.2 68 7 68 C7 64.7 7 61.4 7 58 C7.66 58 8.32 58 9 58 C9.309375 56.72125 9.61875 55.4425 9.9375 54.125 C10.47605244 51.89898325 10.9737 50.05260001 12 48 C8.535 48.495 8.535 48.495 5 49 C5.33 50.98 5.66 52.96 6 55 C4 53 4 53 3.8046875 50.6171875 C3.82789063 49.71226563 3.85109375 48.80734375 3.875 47.875 C3.89304688 46.96492188 3.91109375 46.05484375 3.9296875 45.1171875 C3.95289063 44.41851562 3.97609375 43.71984375 4 43 C3.34 43 2.68 43 2 43 C1.67 43.66 1.34 44.32 1 45 C0.54625 44.195625 0.0925 43.39125 -0.375 42.5625 C-1.74725665 39.91143428 -1.74725665 39.91143428 -4 39 C-4 39.66 -4 40.32 -4 41 C-4.66 41 -5.32 41 -6 41 C-6 41.99 -6 42.98 -6 44 C-7.32 44 -8.64 44 -10 44 C-10 43.34 -10 42.68 -10 42 C-9.01 42 -8.02 42 -7 42 C-6.896875 40.7625 -6.79375 39.525 -6.6875 38.25 C-6.3869774 34.64372883 -5.3240106 32.76638259 -3 30 C-3.5053125 29.55011719 -4.010625 29.10023437 -4.53125 28.63671875 C-8.42197511 24.7845921 -10.52525236 22.03118069 -10.6875 16.4375 C-10.36725309 11.32778263 -8.94304754 8.13866061 -6 4 C-4.68 4 -3.36 4 -2 4 C-1.34 2.68 -0.68 1.36 0 0 Z " fill="#491363" transform="translate(171,30)"/>
<path d="M0 0 C2.375 1 2.375 1 4.21484375 2.05078125 C9.47700793 4.36308848 15.91529654 3.14941125 21.375 2 C24.04808898 1.91442088 26.6994337 1.95465142 29.375 2 C30.365 4.31 31.355 6.62 32.375 9 C54.155 9.495 54.155 9.495 76.375 10 C76.375 10.33 76.375 10.66 76.375 11 C75.75044922 11.05945801 75.12589844 11.11891602 74.48242188 11.18017578 C71.60994429 11.46880556 68.74318991 11.79658131 65.875 12.125 C64.89273438 12.2178125 63.91046875 12.310625 62.8984375 12.40625 C56.73174041 13.14625365 52.81976419 14.45136888 48.11743164 18.5703125 C44.23248133 21.75796404 39.72679508 22.75860802 34.875 23.625 C30.34028532 22.81522952 28.60506797 20.69403082 25.375 17.55859375 C23.16397702 15.83555045 22.13574396 15.52353789 19.375 15.5625 C17.89 15.7790625 17.89 15.7790625 16.375 16 C16.045 14.02 15.715 12.04 15.375 10 C14.715 10 14.055 10 13.375 10 C13.68549726 11.43793392 13.9984776 12.8753318 14.3125 14.3125 C14.48652344 15.11300781 14.66054687 15.91351563 14.83984375 16.73828125 C15.37386159 19.145401 15.37386159 19.145401 16.375 22 C16.47210769 24.78076115 16.51495945 27.53572615 16.5078125 30.31640625 C16.50924759 31.53480446 16.50924759 31.53480446 16.51071167 32.77781677 C16.51139173 34.49339882 16.50954955 36.20898345 16.50537109 37.92456055 C16.50001347 40.5558853 16.50532549 43.18703989 16.51171875 45.81835938 C16.51105807 47.48437538 16.50977713 49.15039127 16.5078125 50.81640625 C16.50983673 51.60600235 16.51186096 52.39559845 16.51394653 53.2091217 C16.48996487 58.77007025 16.48996487 58.77007025 15.375 61 C12.10514132 62.1807823 8.82501352 62.1982498 5.375 62.25 C3.828125 62.28867188 3.828125 62.28867188 2.25 62.328125 C-1.16833467 61.93798898 -2.37684671 61.61861647 -4.625 59 C-5.40380158 56.0892667 -5.92517302 53.46487118 -6.3125 50.5 C-6.43278564 49.65920898 -6.55307129 48.81841797 -6.67700195 47.95214844 C-7.78588034 39.7383477 -8.31600764 31.52367706 -8.54882812 23.24267578 C-8.62322358 21.05230189 -8.75188775 18.87071615 -8.890625 16.68359375 C-9.35736033 5.83199734 -9.35736033 5.83199734 -5.9375 2 C-2.625 0 -2.625 0 0 0 Z " fill="#FC8B61" transform="translate(130.625,129)"/>
<path d="M0 0 C0.33 0 0.66 0 1 0 C1.04487549 0.86987549 1.08975098 1.73975098 1.13598633 2.63598633 C2.11929315 23.06705185 2.11929315 23.06705185 4.4375 43.375 C4.54747314 44.13917236 4.65744629 44.90334473 4.77075195 45.69067383 C5.12103353 47.9834412 5.12103353 47.9834412 6 51 C9.79163027 53.52775351 12.80874031 53.22443035 17.1875 53.125 C17.93708984 53.11597656 18.68667969 53.10695312 19.45898438 53.09765625 C21.30612654 53.07412578 23.15310412 53.03825561 25 53 C25.04964329 47.57398799 25.08583447 42.14810985 25.10986328 36.72192383 C25.11988642 34.87815038 25.13350852 33.03439269 25.15087891 31.19067383 C25.17528995 28.5320241 25.18652017 25.87358557 25.1953125 23.21484375 C25.20563507 22.39789536 25.21595764 21.58094696 25.22659302 20.73924255 C25.22755909 15.74917159 24.52120943 11.74827731 23 7 C22.875 4.0625 22.875 4.0625 23 2 C23.66 2 24.32 2 25 2 C25.33 3.98 25.66 5.96 26 8 C26.99 7.690625 27.98 7.38125 29 7.0625 C31.78201704 6.63061429 32.68737484 6.77224769 35 8.45703125 C36.34116369 9.74318627 37.67445409 11.03759845 39 12.33984375 C41.97881181 14.81249027 44.2005606 14.92084501 48 15 C48 17.31 48 19.62 48 22 C48.66 22.33 49.32 22.66 50 23 C49.505 24.485 49.505 24.485 49 26 C49.99 26.33 50.98 26.66 52 27 C51.34 27 50.68 27 50 27 C50 27.66 50 28.32 50 29 C51.98 29 53.96 29 56 29 C56 30.65 56 32.3 56 34 C55.34 34 54.68 34 54 34 C54 33.01 54 32.02 54 31 C53.21238281 31.0721875 52.42476562 31.144375 51.61328125 31.21875 C43.72042846 31.8912771 35.91941214 32.11665255 28 32 C28.02320313 33.25296875 28.04640625 34.5059375 28.0703125 35.796875 C28.08907427 37.4479107 28.10727403 39.09895285 28.125 40.75 C28.15013672 41.9875 28.15013672 41.9875 28.17578125 43.25 C28.18222656 44.04921875 28.18867188 44.8484375 28.1953125 45.671875 C28.20578613 46.4050293 28.21625977 47.13818359 28.22705078 47.89355469 C27.96639507 50.31176706 27.09773274 51.84704111 26 54 C25.75015836 56.96323802 25.62028468 59.78671534 25.625 62.75 C25.62371094 63.59038818 25.62242187 64.43077637 25.62109375 65.29663086 C25.72740457 71.70487819 26.83022904 77.40547114 28.55908203 83.54931641 C30.15896075 89.28111933 31.65566004 95.23221289 29.1640625 100.90234375 C27.72103139 103.20793857 26.45126455 104.77436772 24 106 C20.94059163 106.42074378 18.0540292 106.47999423 15 106 C11.71824682 103.47031526 10.30756223 101.92268669 9 98 C8.9394854 95.78335923 8.93964295 93.56487714 8.97265625 91.34765625 C8.98532577 89.99935174 8.99768494 88.65104429 9.00976562 87.30273438 C9.03432435 85.196763 9.06204194 83.09094976 9.09594727 80.98510742 C10.01862391 65.90906204 10.01862391 65.90906204 5 52.5 C-4.04439884 41.19450145 -0.2001956 14.08042374 0 0 Z " fill="#8E4568" transform="translate(121,137)"/>
<path d="M0 0 C9.61439505 2.48535382 14.60576 6.31911928 19.6875 14.875 C22.2587929 19.51954258 24.69986547 24.21572017 27 29 C29.67149708 23.39763719 31.67594074 18.06860493 33 12 C37.12751449 12.60698743 40.3321148 14.03810791 44 16 C44.30741419 22.19382671 44.25133252 27.0810181 41.72265625 32.76171875 C40.44709395 36.71251443 40.52479961 40.82468009 40.40625 44.94921875 C39.95000914 48.37541214 39.04981337 50.2395202 37 53 C32.99833063 55.66777958 29.70623152 55.83537677 25 55 C22.0625 52.625 22.0625 52.625 20 50 C19.34 49.34 18.68 48.68 18 48 C17.69940057 45.63490639 17.50484988 43.25558119 17.375 40.875 C17.30023438 39.59367187 17.22546875 38.31234375 17.1484375 36.9921875 C17.09945312 36.00476563 17.05046875 35.01734375 17 34 C13.12479873 31.98513431 13.12479873 31.98513431 9 31 C8.67 29.02 8.34 27.04 8 25 C7.34 25 6.68 25 6 25 C5.67 25.99 5.34 26.98 5 28 C5 26.68 5 25.36 5 24 C-1.27 24 -7.54 24 -14 24 C-12.04863645 16.1945458 -9.62827914 9.33745633 -2.87109375 4.46484375 C-0.71024481 3.05083155 -0.71024481 3.05083155 0 0 Z " fill="#EDB843" transform="translate(194,74)"/>
<path d="M0 0 C2.20770805 -0.08165496 4.41630425 -0.13948488 6.625 -0.1875 C7.85476562 -0.22230469 9.08453125 -0.25710937 10.3515625 -0.29296875 C15.76098323 0.14140658 18.91255889 2.00711898 22.875 5.625 C25.59196015 9.94017201 25.84673915 13.03000936 25 18 C23.34173762 21.73109035 21.06365699 24.32444606 18 27 C15.28613281 27.98901367 15.28613281 27.98901367 12.203125 28.66796875 C11.0790625 28.92126953 9.955 29.17457031 8.796875 29.43554688 C7.62640625 29.68369141 6.4559375 29.93183594 5.25 30.1875 C3.5175 30.57711914 3.5175 30.57711914 1.75 30.97460938 C-6.09680835 32.7078941 -13.75030193 34.12983049 -21.8125 34.1875 C-22.72644531 34.20167969 -23.64039063 34.21585938 -24.58203125 34.23046875 C-27 34 -27 34 -30 32 C-30.65863013 29.3123165 -31.10680211 26.85265416 -31.4375 24.125 C-31.61055664 23.04412109 -31.61055664 23.04412109 -31.78710938 21.94140625 C-32.23458198 18.44532528 -32.37368308 16.53197938 -30.3125 13.59765625 C-23.65178511 8.99591234 -15.65966985 8.60513246 -7.78515625 8.2109375 C-4.91609187 8.10740846 -4.91609187 8.10740846 -2 7 C0.22818441 6.93062938 2.45834524 6.91542916 4.6875 6.9375 C6.45673828 6.95103516 6.45673828 6.95103516 8.26171875 6.96484375 C9.16535156 6.97644531 10.06898438 6.98804688 11 7 C8.525 6.505 8.525 6.505 6 6 C6 5.34 6 4.68 6 4 C5.2575 4.350625 4.515 4.70125 3.75 5.0625 C0.8677274 6.04509293 -0.21176345 6.0326802 -3 5 C-2.34 5 -1.68 5 -1 5 C-0.67 3.35 -0.34 1.7 0 0 Z " fill="#FC8B61" transform="translate(211,133)"/>
<path d="M0 0 C0.80972763 0.00142502 1.61945526 0.00285004 2.45372009 0.00431824 C3.83008385 -0.00029671 3.83008385 -0.00029671 5.23425293 -0.00500488 C6.22698715 0.00218063 7.21972137 0.00936615 8.24253845 0.01676941 C9.7662632 0.01745674 9.7662632 0.01745674 11.32077026 0.01815796 C13.47024197 0.0211822 15.61971145 0.0290736 17.76914978 0.04142761 C21.07220662 0.05968192 24.37498332 0.06193736 27.67808533 0.06169128 C29.76207214 0.06660637 31.84605705 0.07243465 33.93003845 0.07926941 C35.42217613 0.08093864 35.42217613 0.08093864 36.94445801 0.0826416 C37.85888168 0.08902145 38.77330536 0.09540131 39.71543884 0.10197449 C40.9288369 0.10769218 40.9288369 0.10769218 42.16674805 0.11352539 C44.0198822 0.24723816 44.0198822 0.24723816 45.0198822 1.24723816 C45.11973862 3.22307644 45.15069014 5.20247294 45.1526947 7.18083191 C45.1546283 8.98970886 45.1546283 8.98970886 45.15660095 10.83512878 C45.15273376 12.10549988 45.14886658 13.37587097 45.1448822 14.68473816 C45.15068298 16.58449402 45.15068298 16.58449402 45.15660095 18.52262878 C45.15531189 19.72983582 45.15402283 20.93704285 45.1526947 22.18083191 C45.15156677 23.29514587 45.15043884 24.40945984 45.14927673 25.55754089 C45.0198822 28.24723816 45.0198822 28.24723816 44.0198822 30.24723816 C37.48709434 30.27250818 30.95431899 30.29007108 24.42149353 30.3021698 C22.19720489 30.30721133 19.97291957 30.31404439 17.74864197 30.32267761 C14.55909912 30.33475114 11.36959991 30.34046812 8.18003845 30.34489441 C6.67848961 30.35263634 6.67848961 30.35263634 5.14660645 30.36053467 C4.22572739 30.3606102 3.30484833 30.36068573 2.35606384 30.36076355 C1.13361717 30.36409447 1.13361717 30.36409447 -0.11352539 30.36749268 C-1.9801178 30.24723816 -1.9801178 30.24723816 -2.9801178 29.24723816 C-3.02075612 27.58106701 -3.0228388 25.91335721 -2.9801178 24.24723816 C-2.12546936 23.95591003 -1.27082092 23.66458191 -0.39027405 23.36442566 C0.71445251 22.95450378 1.81917908 22.54458191 2.9573822 22.12223816 C4.05953064 21.72778503 5.16167908 21.33333191 6.29722595 20.92692566 C9.34576665 19.47246581 9.34576665 19.47246581 9.89878845 16.06755066 C9.93874939 15.13684753 9.97871033 14.20614441 10.0198822 13.24723816 C8.6998822 12.91723816 7.3798822 12.58723816 6.0198822 12.24723816 C6.3498822 11.25723816 6.6798822 10.26723816 7.0198822 9.24723816 C6.39339783 9.46380066 5.76691345 9.68036316 5.1214447 9.90348816 C4.30417908 10.18192566 3.48691345 10.46036316 2.6448822 10.74723816 C1.83277283 11.02567566 1.02066345 11.30411316 0.1839447 11.59098816 C-1.9801178 12.24723816 -1.9801178 12.24723816 -3.9801178 12.24723816 C-4.03407258 10.62259974 -4.07288975 8.99745275 -4.1051178 7.37223816 C-4.12832092 6.46731628 -4.15152405 5.56239441 -4.1754303 4.63005066 C-3.92376803 1.55977094 -3.13568335 0.39152245 0 0 Z " fill="#938681" transform="translate(164.98011779785156,106.75276184082031)"/>
<path d="M0 0 C2.02168235 4.0433647 2.35927761 6.32129345 2.625 10.75 C2.69976562 11.92046875 2.77453125 13.0909375 2.8515625 14.296875 C2.90054688 15.18890625 2.94953125 16.0809375 3 17 C3.66 17 4.32 17 5 17 C5.226875 15.88625 5.45375 14.7725 5.6875 13.625 C7 10 7 10 9.625 8.5625 C10.40875 8.376875 11.1925 8.19125 12 8 C12.495 8.99 12.495 8.99 13 10 C12.35546875 10.22429687 11.7109375 10.44859375 11.046875 10.6796875 C8.75611148 11.82889456 8.75611148 11.82889456 8.390625 14.3828125 C8.32101563 15.74019531 8.32101563 15.74019531 8.25 17.125 C8.19328125 18.03507812 8.1365625 18.94515625 8.078125 19.8828125 C8.05234375 20.58148438 8.0265625 21.28015625 8 22 C8.54269531 21.7834375 9.08539063 21.566875 9.64453125 21.34375 C10.71767578 20.92609375 10.71767578 20.92609375 11.8125 20.5 C12.52019531 20.2215625 13.22789062 19.943125 13.95703125 19.65625 C16 19 16 19 19 19 C19 19.99 19 20.98 19 22 C19.99 22.33 20.98 22.66 22 23 C22 24.98 22 26.96 22 29 C20.39967863 29.84069415 18.79458829 30.67231505 17.1875 31.5 C16.29417969 31.9640625 15.40085938 32.428125 14.48046875 32.90625 C12 34 12 34 9 34 C9.495 36.475 9.495 36.475 10 39 C25.18 39.33 40.36 39.66 56 40 C56 39.34 56 38.68 56 38 C56.66 38.33 57.32 38.66 58 39 C57.505 39.99 57.505 39.99 57 41 C57.721875 40.67 58.44375 40.34 59.1875 40 C62.01697427 38.99396471 64.02895466 38.83022598 67 39 C65.515 39.495 65.515 39.495 64 40 C64 40.66 64 41.32 64 42 C65.65 42 67.3 42 69 42 C69.33 42.66 69.66 43.32 70 44 C68.53626953 43.98259766 68.53626953 43.98259766 67.04296875 43.96484375 C65.77066406 43.95582031 64.49835938 43.94679687 63.1875 43.9375 C61.92292969 43.92589844 60.65835938 43.91429687 59.35546875 43.90234375 C56.00394763 43.83840884 56.00394763 43.83840884 53 45 C50.98108633 45.1529051 48.95966347 45.27377132 46.9375 45.375 C40.38213679 45.8437634 33.90390008 46.64926447 28.18359375 50.09375 C26.20851034 53.27474242 27.15064985 56.59358107 27.6875 60.125 C27.77966797 60.86621094 27.87183594 61.60742188 27.96679688 62.37109375 C28.22762831 64.26082615 28.60542639 66.13360421 29 68 C39.20023569 73.10011784 57.78051232 66.166624 68.23046875 63.55078125 C70.90335746 63.01921946 73.28384465 62.89572347 76 63 C73.73271572 65.26728428 72.66108724 65.5048449 69.59765625 66.21875 C68.26988159 66.53259644 68.26988159 66.53259644 66.9152832 66.8527832 C65.97386475 67.06636475 65.03244629 67.27994629 64.0625 67.5 C63.10625732 67.72067139 62.15001465 67.94134277 61.16479492 68.16870117 C58.44553792 68.79023902 55.72378785 69.39866492 53 70 C51.85015625 70.25394531 50.7003125 70.50789063 49.515625 70.76953125 C38.37184008 73.00795047 29.01372864 71.66614757 18 69 C15.26470588 59.88235294 15.26470588 59.88235294 15 56 C17.07087228 53.35647493 19.29709185 52.2863099 22.375 51.0625 C25.25620569 49.85930851 26.98586179 49.01299187 29.3125 46.875 C32.40507436 44.71738998 34.46677466 44.44307363 38.16796875 43.8828125 C39.25746826 43.71410645 40.34696777 43.54540039 41.46948242 43.37158203 C42.30455322 43.24895996 43.13962402 43.12633789 44 43 C42.98574951 42.9906543 41.97149902 42.98130859 40.92651367 42.97167969 C37.16337158 42.93180638 33.4010494 42.86605658 29.63842773 42.79248047 C28.00995415 42.76425511 26.38134317 42.74304828 24.75268555 42.72900391 C22.41123029 42.70759468 20.07142955 42.66096036 17.73046875 42.609375 C17.00224411 42.60814636 16.27401947 42.60691772 15.52372742 42.60565186 C12.29930357 42.51221588 10.45859904 42.41349001 8.0168457 40.21191406 C7 38 7 38 7 34 C6.17757812 34.144375 5.35515625 34.28875 4.5078125 34.4375 C-14.86533085 37.65890028 -14.86533085 37.65890028 -23 32 C-22.01 30.515 -22.01 30.515 -21 29 C-20.52046875 29.65484375 -20.0409375 30.3096875 -19.546875 30.984375 C-15.86363317 33.89933326 -12.8007583 33.44621843 -8.25 33.25 C-7.45722656 33.23195312 -6.66445312 33.21390625 -5.84765625 33.1953125 C-3.89791652 33.14833082 -1.94880122 33.07659044 0 33 C-0.33 32.01 -0.66 31.02 -1 30 C-1.38192002 24.8440797 -0.79759538 22.28473818 2 18 C-0.06242617 17.97282308 -2.12495703 17.9535242 -4.1875 17.9375 C-5.33605469 17.92589844 -6.48460937 17.91429688 -7.66796875 17.90234375 C-10.59300586 17.98807168 -13.16316291 18.32150977 -16 19 C-13.94766315 16.7522025 -12.99332739 15.9977758 -10 15 C-6.31617231 14.86843473 -3.50946415 14.83017862 0 16 C0 10.72 0 5.44 0 0 Z " fill="#7D3461" transform="translate(153,97)"/>
<path d="M0 0 C-0.35909135 5.57210713 -0.85002748 10.21670839 -4 15 C-6.39505952 16.7107568 -8.32544441 17.0635971 -11.23828125 17.6328125 C-15.89749941 18.95674334 -18.3783598 22.03233347 -21.4375 25.625 C-21.97826172 26.23601562 -22.51902344 26.84703125 -23.07617188 27.4765625 C-24.39718786 28.97293459 -25.70046124 30.48493839 -27 32 C-26.67644531 32.59941406 -26.35289062 33.19882813 -26.01953125 33.81640625 C-24.65016553 36.74926233 -24.67253172 38.79081081 -25 42 C-26.66762322 45.49406769 -27.74006022 46.82670681 -31 49 C-33.33199388 49.07905064 -35.66832622 49.08798769 -38 49 C-38.226875 50.051875 -38.45375 51.10375 -38.6875 52.1875 C-39.62224091 55.93962901 -40.89981941 59.46416266 -42.3125 63.0625 C-44.23308576 67.97256894 -46.08766156 72.89330829 -47.8125 77.875 C-48.23144531 79.06867188 -48.65039062 80.26234375 -49.08203125 81.4921875 C-50.16121255 84.98715764 -50.16121255 84.98715764 -49.9609375 88.66796875 C-50.00421534 92.35956854 -50.54440607 93.60652144 -52.8125 96.4375 C-53.33457031 97.11683594 -53.85664063 97.79617188 -54.39453125 98.49609375 C-56 100 -56 100 -59 100 C-59.62608696 91.04347826 -59.62608696 91.04347826 -57.125 86.875 C-55 85 -55 85 -53 85 C-52.90332031 84.36449219 -52.80664062 83.72898437 -52.70703125 83.07421875 C-51.73379761 78.84253435 -50.21133503 74.87328225 -48.6875 70.8125 C-48.37425781 69.96550537 -48.06101563 69.11851074 -47.73828125 68.24584961 C-45.8135366 63.06862453 -43.79904502 57.9486847 -41.53125 52.91015625 C-40.87500341 50.55056374 -41.16551705 49.28186297 -42 47 C-42.515625 46.236875 -43.03125 45.47375 -43.5625 44.6875 C-45.45838729 41.14301507 -45.56695668 38.96869674 -45 35 C-42.41083351 31.39085884 -40.84089561 30.19520791 -36.5 29.1875 C-33 29 -33 29 -30.67578125 29.36328125 C-26.44408743 28.78875931 -24.47231749 26.06566786 -21.6875 23 C-21.13771484 22.44699219 -20.58792969 21.89398438 -20.02148438 21.32421875 C-16.9795479 18.06697884 -16.9795479 18.06697884 -15.75683594 13.89599609 C-15.8337016 11.93049577 -15.91658947 9.96523346 -16 8 C-12.5484269 2.71031104 -6.17391579 0 0 0 Z " fill="#66456D" transform="translate(211,196)"/>
<path d="M0 0 C3.3 0.33 6.6 0.66 10 1 C11.34667285 9.20246193 10.6136756 16.07837526 8 24 C7.34 24.66 6.68 25.32 6 26 C5.67870666 28.1945321 5.67870666 28.1945321 5.69140625 30.7265625 C5.66626953 31.67660156 5.64113281 32.62664062 5.61523438 33.60546875 C5.58048846 35.5949941 5.54915481 37.58458241 5.52148438 39.57421875 C5.35194706 45.71891254 4.50608917 50.37299446 2 56 C1.34 56 0.68 56 0 56 C0 57.98 0 59.96 0 62 C-0.33 62 -0.66 62 -1 62 C-1.23527234 57.60824962 -1.2974078 54.25526925 0.4375 50.1875 C2.51489726 45.27817911 2.71883511 40.27426558 3 35 C2.113125 34.71125 1.22625 34.4225 0.3125 34.125 C-2.50382424 33.16851252 -5.25083156 32.13201054 -8 31 C-8.33 33.64 -8.66 36.28 -9 39 C-9.33 39 -9.66 39 -10 39 C-10.32153322 33.42675751 -10.42295311 30.51207455 -7 26 C-7.82367678 22.16425553 -7.82367678 22.16425553 -10 19 C-10.37753671 14.09202272 -10.2634615 10.82612727 -7 7 C-4.4375 6.125 -4.4375 6.125 -2 6 C-1.34 6.33 -0.68 6.66 0 7 C0 4.69 0 2.38 0 0 Z " fill="#511662" transform="translate(235,55)"/>
<path d="M0 0 C13.95518962 -0.68820113 13.95518962 -0.68820113 17.8125 1.75 C20.02894226 4.02976918 20.47936797 4.98033422 21 8 C22.485 8.495 22.485 8.495 24 9 C26.69058578 13.03587867 26.12802062 15.57486013 25.61328125 20.26953125 C24.68838642 24.38737511 23.03652062 26.1080756 20 29 C19.443125 29.61875 18.88625 30.2375 18.3125 30.875 C17 32 17 32 15 32 C15.75 25.25 15.75 25.25 18 23 C18.33 23.33 18.66 23.66 19 24 C19 23.01 19 22.02 19 21 C18.01 20.34 17.02 19.68 16 19 C15.31731862 17.67479497 14.6492959 16.34187818 14 15 C11.52621876 13.76310938 9.82084683 13.86689913 7.0625 13.875 C6.18722656 13.87242188 5.31195313 13.86984375 4.41015625 13.8671875 C1.85540944 13.90177997 1.85540944 13.90177997 -1 15 C-1.1546875 16.175625 -1.1546875 16.175625 -1.3125 17.375 C-2 20 -2 20 -5 22 C-6.19232613 24.05003955 -6.19232613 24.05003955 -7 26 C-10.53641278 21.99456695 -10.48896812 18.94604224 -10.37109375 13.7734375 C-9.82854051 9.71856591 -8.35373946 7.30994612 -6 4 C-4.68 4 -3.36 4 -2 4 C-1.34 2.68 -0.68 1.36 0 0 Z " fill="#450D61" transform="translate(171,30)"/>
<path d="M0 0 C0.66 0 1.32 0 2 0 C2.33 1.98 2.66 3.96 3 6 C3.99 5.690625 4.98 5.38125 6 5.0625 C8.78201704 4.63061429 9.68737484 4.77224769 12 6.45703125 C13.34116369 7.74318627 14.67445409 9.03759845 16 10.33984375 C18.97881181 12.81249027 21.2005606 12.92084501 25 13 C25 15.31 25 17.62 25 20 C25.66 20.33 26.32 20.66 27 21 C26.67 21.99 26.34 22.98 26 24 C26.99 24.33 27.98 24.66 29 25 C28.34 25 27.68 25 27 25 C27 25.66 27 26.32 27 27 C28.98 27 30.96 27 33 27 C33 28.65 33 30.3 33 32 C32.34 32 31.68 32 31 32 C31 31.01 31 30.02 31 29 C30.21238281 29.0721875 29.42476562 29.144375 28.61328125 29.21875 C20.71096878 29.89208313 12.93045707 30.08714788 5 30 C5 35.94 5 41.88 5 48 C4.67 48 4.34 48 4 48 C3.97494385 47.30028076 3.9498877 46.60056152 3.92407227 45.87963867 C3.80662133 42.64880582 3.68458364 39.41816098 3.5625 36.1875 C3.52318359 35.08728516 3.48386719 33.98707031 3.44335938 32.85351562 C3.23523216 20.34445519 3.23523216 20.34445519 0.9375 8.125 C0.06267147 5.20890489 -0.18275414 3.01544326 0 0 Z " fill="#68306B" transform="translate(144,139)"/>
<path d="M0 0 C3.16102539 0.53968726 4.27447559 1.1765528 6.5625 3.4375 C7.50341533 6.07438616 8.20919586 8.47757647 8.8125 11.1875 C8.98523438 11.8784375 9.15796875 12.569375 9.3359375 13.28125 C10.64132982 18.79290648 11.69901456 24.1150572 9.125 29.375 C5.85867878 32.00399025 3.78966232 32.09374401 -0.3125 31.87109375 C-3.35219955 31.25086094 -4.67502924 29.93433357 -6.4375 27.4375 C-8.69622126 22.92005748 -6.87712208 16.35577202 -6.4375 11.4375 C-6.375625 10.66535156 -6.31375 9.89320313 -6.25 9.09765625 C-5.77165106 4.54337571 -4.90344629 0.88010574 0 0 Z " fill="#9DCEEB" transform="translate(138.4375,205.5625)"/>
<path d="M0 0 C1.32 0 2.64 0 4 0 C5.13660609 3.12089682 6.25704207 6.24737961 7.375 9.375 C7.69210938 10.24511719 8.00921875 11.11523438 8.3359375 12.01171875 C10.44491457 17.94321677 11.93941453 23.79515748 13 30 C12.34 30.33 11.68 30.66 11 31 C9.2563724 30.27623005 7.51422644 29.54798953 5.7890625 28.78125 C1.55570854 26.93262382 -0.84135546 26.79114481 -5.125 28.4375 C-5.78757812 28.72496094 -6.45015625 29.01242188 -7.1328125 29.30859375 C-9 30 -9 30 -12 30 C-11.44657994 25.50596242 -10.28458707 22.12804721 -8.1875 18.125 C-7.383125 16.56652344 -7.383125 16.56652344 -6.5625 14.9765625 C-6.046875 13.99429688 -5.53125 13.01203125 -5 12 C-1.96315576 6.20916728 -1.96315576 6.20916728 0 0 Z " fill="#4D196E" transform="translate(49,206)"/>
<path d="M0 0 C10.8029818 -0.34910893 21.28712612 0.73300752 32 2 C30.94542408 6.83187514 28.96352221 8.0880245 25 11 C24.34 11 23.68 11 23 11 C23 15.29 23 19.58 23 24 C18.36970656 22.84242664 16.36859027 20.75255732 13.1875 17.4375 C12.65995117 16.89681885 12.13240234 16.3561377 11.58886719 15.79907227 C10.04795259 14.20973837 8.52125523 12.60814003 7 11 C6.22785156 10.1853125 5.45570313 9.370625 4.66015625 8.53125 C0 3.42318507 0 3.42318507 0 0 Z " fill="#4B1D6D" transform="translate(259,147)"/>
<path d="M0 0 C0.85464844 -0.01675781 1.70929688 -0.03351562 2.58984375 -0.05078125 C5.56568275 0.38642732 6.90107084 1.24777908 9.0625 3.3125 C9.3925 4.3025 9.7225 5.2925 10.0625 6.3125 C11.0525 6.9725 12.0425 7.6325 13.0625 8.3125 C12.7325 9.6325 12.4025 10.9525 12.0625 12.3125 C11.4025 12.3125 10.7425 12.3125 10.0625 12.3125 C9.79695313 12.87839844 9.53140625 13.44429687 9.2578125 14.02734375 C8.72800781 15.12755859 8.72800781 15.12755859 8.1875 16.25 C7.83945313 16.98089844 7.49140625 17.71179688 7.1328125 18.46484375 C6.0625 20.3125 6.0625 20.3125 4.0625 21.3125 C-0.30829845 21.80730737 -2.21991221 21.87062383 -5.75 19.125 C-7.77260721 16.52450502 -8.95619159 14.43484496 -9.9375 11.3125 C-10.5975 11.3125 -11.2575 11.3125 -11.9375 11.3125 C-11.6075 9.9925 -11.2775 8.6725 -10.9375 7.3125 C-10.2775 7.3125 -9.6175 7.3125 -8.9375 7.3125 C-8.834375 6.52875 -8.73125 5.745 -8.625 4.9375 C-7.3932709 0.23453435 -4.31525797 0.01946733 0 0 Z " fill="#BC6B58" transform="translate(177.9375,42.6875)"/>
<path d="M0 0 C0.33 0 0.66 0 1 0 C1 3.63 1 7.26 1 11 C3.475 11.495 3.475 11.495 6 12 C9.3592292 15.3592292 8.35591208 20.04380784 8.4609375 24.6171875 C9.08062541 28.50595363 10.08310992 29.50146865 13 32 C13 32.66 13 33.32 13 34 C14.77074917 34.02705729 16.54161711 34.04642195 18.3125 34.0625 C19.29863281 34.07410156 20.28476563 34.08570313 21.30078125 34.09765625 C24.09963849 34.12329862 24.09963849 34.12329862 27 33 C27.9969134 30.87726597 27.9969134 30.87726597 28.625 28.3125 C28.87121094 27.41402344 29.11742187 26.51554687 29.37109375 25.58984375 C30.06280686 22.74136055 30.61753774 19.90671321 31 17 C31.33 17 31.66 17 32 17 C32.62721538 27.76719736 32.62721538 27.76719736 30.1875 32.5625 C26.6 36.56 26.6 36.56 25 38 C25.928125 38.53625 26.85625 39.0725 27.8125 39.625 C32.09131009 42.81313301 33.32179216 45.82004623 34.875 50.8125 C35.05088331 55.29752444 34.05340871 59.01029715 32 63 C29.4375 65.125 29.4375 65.125 27 66 C26.34 65.67 25.68 65.34 25 65 C25.804375 64.236875 26.60875 63.47375 27.4375 62.6875 C31.15100903 58.79284419 31.40653475 55.45354828 31.34765625 50.2890625 C30.74154333 46.29825158 28.96284715 44.69948296 26 42 C21.9331911 39.94511592 18.20563785 39.62835352 13.6875 39.375 C12.43324219 39.30023438 11.17898437 39.22546875 9.88671875 39.1484375 C8.93410156 39.09945312 7.98148438 39.05046875 7 39 C6.505 39.99 6.505 39.99 6 41 C5.67 32.09 5.34 23.18 5 14 C-9.19 13.67 -23.38 13.34 -38 13 C-38.33 12.34 -38.66 11.68 -39 11 C-26.13 11 -13.26 11 0 11 C0 7.37 0 3.74 0 0 Z M8 32 C8 33.65 8 35.3 8 37 C9.65 37 11.3 37 13 37 C11.35 35.35 9.7 33.7 8 32 Z " fill="#4B145E" transform="translate(204,94)"/>
<path d="M0 0 C2.02168235 4.0433647 2.35927761 6.32129345 2.625 10.75 C2.69976562 11.92046875 2.77453125 13.0909375 2.8515625 14.296875 C2.90054688 15.18890625 2.94953125 16.0809375 3 17 C3.66 17 4.32 17 5 17 C5.226875 15.88625 5.45375 14.7725 5.6875 13.625 C7 10 7 10 9.625 8.5625 C10.40875 8.376875 11.1925 8.19125 12 8 C12.495 8.99 12.495 8.99 13 10 C12.35546875 10.22429687 11.7109375 10.44859375 11.046875 10.6796875 C8.75611148 11.82889456 8.75611148 11.82889456 8.390625 14.3828125 C8.32101563 15.74019531 8.32101563 15.74019531 8.25 17.125 C8.19328125 18.03507812 8.1365625 18.94515625 8.078125 19.8828125 C8.05234375 20.58148438 8.0265625 21.28015625 8 22 C8.66 21.67 9.32 21.34 10 21 C12.3329866 20.95977609 14.66706666 20.95679753 17 21 C14.47043472 24.0916909 11.77545388 24.90931332 8 26 C11.63 25.67 15.26 25.34 19 25 C15.09618178 28.90381822 13.33820964 28.56244183 8 29 C8 29.66 8 30.32 8 31 C11.96 29.68 15.92 28.36 20 27 C20 27.66 20 28.32 20 29 C14.10104429 33.0449982 7.92696672 32.27748976 1 32 C1 32.66 1 33.32 1 34 C-5.13191253 36.13283914 -11.96729903 37.65039364 -18.1953125 35.1015625 C-20.125 34 -20.125 34 -23 32 C-22.01 30.515 -22.01 30.515 -21 29 C-20.52046875 29.65484375 -20.0409375 30.3096875 -19.546875 30.984375 C-15.86363317 33.89933326 -12.8007583 33.44621843 -8.25 33.25 C-7.45722656 33.23195312 -6.66445312 33.21390625 -5.84765625 33.1953125 C-3.89791652 33.14833082 -1.94880122 33.07659044 0 33 C-0.33 32.01 -0.66 31.02 -1 30 C-1.38192002 24.8440797 -0.79759538 22.28473818 2 18 C-0.06242617 17.97282308 -2.12495703 17.9535242 -4.1875 17.9375 C-5.33605469 17.92589844 -6.48460937 17.91429688 -7.66796875 17.90234375 C-10.59300586 17.98807168 -13.16316291 18.32150977 -16 19 C-13.94766315 16.7522025 -12.99332739 15.9977758 -10 15 C-6.31617231 14.86843473 -3.50946415 14.83017862 0 16 C0 10.72 0 5.44 0 0 Z " fill="#743E5A" transform="translate(153,97)"/>
<path d="M0 0 C3.75558209 1.48835183 3.75558209 1.48835183 4.87890625 3.83984375 C5.10449219 4.53207031 5.33007812 5.22429688 5.5625 5.9375 C6.91325903 8.97532948 7.6033746 9.8249338 10.69921875 11.19140625 C13.43654593 11.91692062 16.21817203 12.47012801 19 13 C19 17.62 19 22.24 19 27 C16.36 27 13.72 27 11 27 C11.33 28.98 11.66 30.96 12 33 C10 31 10 31 9.8046875 28.6171875 C9.83949219 27.25980469 9.83949219 27.25980469 9.875 25.875 C9.89304688 24.96492188 9.91109375 24.05484375 9.9296875 23.1171875 C9.95289063 22.41851562 9.97609375 21.71984375 10 21 C9.34 21 8.68 21 8 21 C7.67 21.66 7.34 22.32 7 23 C6.54625 22.195625 6.0925 21.39125 5.625 20.5625 C4.25274335 17.91143428 4.25274335 17.91143428 2 17 C2 17.66 2 18.32 2 19 C1.34 19 0.68 19 0 19 C0 19.99 0 20.98 0 22 C-1.32 22 -2.64 22 -4 22 C-4 21.34 -4 20.68 -4 20 C-3.01 20 -2.02 20 -1 20 C-0.896875 18.7625 -0.79375 17.525 -0.6875 16.25 C-0.26198318 12.7207134 0.48112592 10.62839034 3 8 C2.505 7.608125 2.01 7.21625 1.5 6.8125 C-0.45593143 4.44908285 -0.24207973 2.98564997 0 0 Z " fill="#541A60" transform="translate(165,52)"/>
<path d="M0 0 C2.02350324 3.03525486 2.32124018 4.19426202 2.625 7.6875 C2.69976562 8.49574219 2.77453125 9.30398437 2.8515625 10.13671875 C2.92503906 11.05904297 2.92503906 11.05904297 3 12 C4.14814997 9.70370006 4.30769809 7.92301914 4.5625 5.375 C4.64628906 4.55773438 4.73007813 3.74046875 4.81640625 2.8984375 C4.87699219 2.27195313 4.93757812 1.64546875 5 1 C7.55867609 5.17821264 6.76363885 7.79795689 5.703125 12.38671875 C4.70322379 16.10301826 3.59610822 19.48856191 2 23 C1.01 23.33 0.02 23.66 -1 24 C-0.67 24.33 -0.34 24.66 0 25 C0.04080783 26.99958364 0.04254356 29.00045254 0 31 C-2.31 30.01 -4.62 29.02 -7 28 C-6.95875 26.9275 -6.9175 25.855 -6.875 24.75 C-6.72529527 21.19250718 -6.72529527 21.19250718 -8 19.0625 C-9.18636549 16.61562118 -9.20443635 14.95083603 -9.125 12.25 C-9.10695312 11.45078125 -9.08890625 10.6515625 -9.0703125 9.828125 C-9.04710937 9.22484375 -9.02390625 8.6215625 -9 8 C-8.67 8 -8.34 8 -8 8 C-7.67 9.65 -7.34 11.3 -7 13 C-6.01 13.33 -5.02 13.66 -4 14 C-4.66 11.69 -5.32 9.38 -6 7 C-4.68 7.33 -3.36 7.66 -2 8 C-2 9.32 -2 10.64 -2 12 C-1.34 12 -0.68 12 0 12 C0 8.04 0 4.08 0 0 Z " fill="#B36459" transform="translate(237,57)"/>
<path d="M0 0 C2 2 2 2 2.11938477 4.09130859 C2.06065186 4.93516113 2.00191895 5.77901367 1.94140625 6.6484375 C1.88533203 7.57140625 1.82925781 8.494375 1.77148438 9.4453125 C1.70251953 10.41210938 1.63355469 11.37890625 1.5625 12.375 C1.43331223 14.27828115 1.30941226 16.18193035 1.19140625 18.0859375 C1.10161499 19.3551001 1.10161499 19.3551001 1.01000977 20.64990234 C0.99992889 23.01669511 1.12283402 24.79866547 2 27 C6.0442078 28.34806927 9.77160933 28.55118687 14 28 C16.25463249 26.5771736 16.25463249 26.5771736 17 24 C17.76596226 17.99996228 16.01778081 12.57457916 14.4609375 6.79296875 C14.30882812 5.87128906 14.15671875 4.94960937 14 4 C14.66 3.34 15.32 2.68 16 2 C21.97604875 23.503104 21.97604875 23.503104 19.1640625 29.90234375 C17.72103139 32.20793857 16.45126455 33.77436772 14 35 C10.94059163 35.42074378 8.0540292 35.47999423 5 35 C1.71824682 32.47031526 0.30756223 30.92268669 -1 27 C-1.09790378 24.11471799 -1.14132726 21.25967718 -1.125 18.375 C-1.12306641 17.56627441 -1.12113281 16.75754883 -1.11914062 15.92431641 C-1.08017116 10.54977753 -0.78858051 5.32291847 0 0 Z " fill="#704F8B" transform="translate(131,208)"/>
<path d="M0 0 C3.42805759 0.78559653 5.06293793 2.05561427 7.14453125 4.8984375 C8.69679676 8.14472793 8.12136374 10.38570677 7 13.6875 C4.31970852 16.06147245 2.45606216 16.61304087 -1.0625 17.1875 C-4 16.6875 -4 16.6875 -6.375 14.5625 C-8.30285153 11.15168575 -8.72222637 9.53937398 -8 5.6875 C-5.54853142 2.37080721 -4.04375441 0.92669372 0 0 Z " fill="#ECB843" transform="translate(176,226.3125)"/>
<path d="M0 0 C2.140625 1.41015625 2.140625 1.41015625 4.25 3.0625 C4.95640625 3.61035156 5.6628125 4.15820312 6.390625 4.72265625 C7.18726563 5.35494141 7.18726563 5.35494141 8 6 C7.49984375 6.43699219 6.9996875 6.87398437 6.484375 7.32421875 C5.99453125 7.87722656 5.5046875 8.43023437 5 9 C5.19053578 11.89802603 5.19053578 11.89802603 6 15 C6.33333333 17 6.66666667 19 7 21 C5.02 21 3.04 21 1 21 C1 19.02 1 17.04 1 15 C0.34 15 -0.32 15 -1 15 C-1.33 15.99 -1.66 16.98 -2 18 C-2.66 17.67 -3.32 17.34 -4 17 C-4 16.34 -4 15.68 -4 15 C-4.66 15 -5.32 15 -6 15 C-6.33 10.05 -6.66 5.1 -7 0 C-3.78980126 -1.07006625 -3.05929287 -1.10985625 0 0 Z " fill="#9CC6E5" transform="translate(154,147)"/>
<path d="M0 0 C-1.92089744 1.4723333 -3.8196527 2.88974625 -5.88574219 4.15283203 C-12.72085147 8.55182035 -15.66233583 14.77110745 -19.25 21.875 C-19.848125 23.02097656 -20.44625 24.16695312 -21.0625 25.34765625 C-22.21615256 27.56562987 -23.35813405 29.78972379 -24.48681641 32.02050781 C-25.40477156 33.82798195 -26.33994875 35.6270307 -27.30615234 37.40917969 C-29.3960537 41.30897799 -30.35125587 44.08135589 -30.125 48.5 C-30.30062126 52.315771 -30.65269809 53.62172091 -33.27734375 56.48046875 C-35.78215088 58.46534396 -38.30104447 60.29049822 -41 62 C-41 59 -41 59 -40 57 C-39.34 57 -38.68 57 -38 57 C-37.67 56.01 -37.34 55.02 -37 54 C-34.9375 53.3125 -34.9375 53.3125 -33 53 C-33.33 52.34 -33.66 51.68 -34 51 C-34.45070025 45.00759102 -33.64277513 41.2090254 -30.5625 36 C-30.20776611 35.36916504 -29.85303223 34.73833008 -29.48754883 34.08837891 C-28.73163968 32.74787146 -27.9683467 31.41150461 -27.19824219 30.07910156 C-25.96899228 27.94619769 -24.76666406 25.79994845 -23.5703125 23.6484375 C-14.0196723 6.50100491 -14.0196723 6.50100491 -10 3 C-9.34 3 -8.68 3 -8 3 C-8 2.34 -8 1.68 -8 1 C-3.375 -1.125 -3.375 -1.125 0 0 Z " fill="#551A63" transform="translate(162,74)"/>
<path d="M0 0 C-0.75771971 11.75771971 -0.75771971 11.75771971 -5 16 C-6.51928038 16.07179964 -8.04167482 16.08392007 -9.5625 16.0625 C-10.38878906 16.05347656 -11.21507812 16.04445312 -12.06640625 16.03515625 C-13.02353516 16.01775391 -13.02353516 16.01775391 -14 16 C-14 15.34 -14 14.68 -14 14 C-14.66 14 -15.32 14 -16 14 C-16.4375 11.375 -16.4375 11.375 -16 8 C-11.89446136 2.93055228 -6.57433606 0 0 0 Z " fill="#4D1868" transform="translate(211,196)"/>
<path d="M0 0 C1.33333333 0.66666667 2.66666667 1.33333333 4 2 C5.0828125 2.37125 5.0828125 2.37125 6.1875 2.75 C8 4 8 4 8.75 7.125 C8.87375 8.548125 8.87375 8.548125 9 10 C12.465 9.505 12.465 9.505 16 9 C15.01 12.3 14.02 15.6 13 19 C12.34 19 11.68 19 11 19 C11.33 21.31 11.66 23.62 12 26 C11.34 26.33 10.68 26.66 10 27 C9.63648438 26.04738281 9.27296875 25.09476563 8.8984375 24.11328125 C5.21304332 14.76922637 5.21304332 14.76922637 -2 8 C-2 7.34 -2 6.68 -2 6 C-2.99 5.67 -3.98 5.34 -5 5 C-4.01 5 -3.02 5 -2 5 C-2 4.01 -2 3.02 -2 2 C-1.34 2 -0.68 2 0 2 C0 1.34 0 0.68 0 0 Z " fill="#71476B" transform="translate(167,69)"/>
<path d="M0 0 C8.25 0.33 16.5 0.66 25 1 C22.33333333 6.33333333 22.33333333 6.33333333 19 8 C15.875 7.1875 15.875 7.1875 13 6 C12.34 6 11.68 6 11 6 C14.465 7.485 14.465 7.485 18 9 C18 11.97 18 14.94 18 18 C17.34 18 16.68 18 16 18 C14.58984375 16.56640625 14.58984375 16.56640625 12.9375 14.5625 C9.41377328 10.39944733 5.62949203 6.58763581 1.72265625 2.78515625 C0 1 0 1 0 0 Z " fill="#97C2E2" transform="translate(262,149)"/>
<path d="M0 0 C0.66 0 1.32 0 2 0 C3.19948775 3.62114543 4.38253505 7.2474506 5.5625 10.875 C5.90474609 11.90753906 6.24699219 12.94007813 6.59960938 14.00390625 C6.91865234 14.99003906 7.23769531 15.97617188 7.56640625 16.9921875 C7.86490479 17.90339355 8.16340332 18.81459961 8.47094727 19.75341797 C9 22 9 22 8 24 C3.15544041 21.79792746 3.15544041 21.79792746 1 20 C0.0625 16.25 0.0625 16.25 0 13 C-0.185625 14.11375 -0.37125 15.2275 -0.5625 16.375 C-1.2740625 18.169375 -1.2740625 18.169375 -2 20 C-5.625 21.4375 -5.625 21.4375 -9 22 C-6.66062389 14.33204498 -3.45231194 7.22862726 0 0 Z " fill="#98C3E3" transform="translate(50,210)"/>
<path d="M0 0 C0 0.99 0 1.98 0 3 C0.99 3.33 1.98 3.66 3 4 C3 5.98 3 7.96 3 10 C1.39967863 10.84069415 -0.20541171 11.67231505 -1.8125 12.5 C-2.70582031 12.9640625 -3.59914062 13.428125 -4.51953125 13.90625 C-7 15 -7 15 -10 15 C-9.65555119 17.47266765 -9.65555119 17.47266765 -9 20 C-6.73961146 21.13019427 -5.42881174 21.15268957 -2.91748047 21.20532227 C-2.07675995 21.22526749 -1.23603943 21.24521271 -0.36984253 21.26576233 C0.99272171 21.29083107 0.99272171 21.29083107 2.3828125 21.31640625 C3.31221649 21.33718735 4.24162048 21.35796844 5.19918823 21.37937927 C8.1743821 21.44487646 11.14966577 21.50376052 14.125 21.5625 C16.13933228 21.60568506 18.15365541 21.64929934 20.16796875 21.69335938 C25.11188663 21.80055803 30.05589503 21.90182501 35 22 C35 22.33 35 22.66 35 23 C28.78870302 23.09877896 22.57786182 23.17142631 16.3659668 23.21972656 C14.25227903 23.23985847 12.13864706 23.26716643 10.02514648 23.30175781 C6.98928065 23.35020627 3.95415022 23.37295276 0.91796875 23.390625 C-0.02899368 23.41127014 -0.97595612 23.43191528 -1.95161438 23.45318604 C-8.45591786 23.45541737 -8.45591786 23.45541737 -11.11987305 21.22558594 C-12 19 -12 19 -12 15 C-13.98 15 -15.96 15 -18 15 C-18 14.34 -18 13.68 -18 13 C-17.13117188 12.95101562 -16.26234375 12.90203125 -15.3671875 12.8515625 C-14.21476563 12.77679688 -13.06234375 12.70203125 -11.875 12.625 C-10.16957031 12.52058594 -10.16957031 12.52058594 -8.4296875 12.4140625 C-5.04606384 12.00556124 -2.18387559 11.19032431 1 10 C-1.79784711 10 -3.9790678 10.37195775 -6.6875 11 C-7.49574219 11.185625 -8.30398437 11.37125 -9.13671875 11.5625 C-9.75160156 11.706875 -10.36648437 11.85125 -11 12 C-11 11.34 -11 10.68 -11 10 C-6.05 8.515 -6.05 8.515 -1 7 C-6.445 7.495 -6.445 7.495 -12 8 C-10.694761 5.38952199 -9.64173426 5.31933577 -6.9375 4.375 C-6.20402344 4.11460938 -5.47054687 3.85421875 -4.71484375 3.5859375 C-4.14894531 3.39257812 -3.58304688 3.19921875 -3 3 C-3.66 2.34 -4.32 1.68 -5 1 C-3 0 -3 0 0 0 Z " fill="#5C2462" transform="translate(172,116)"/>
<path d="M0 0 C0.33 0 0.66 0 1 0 C1 3.63 1 7.26 1 11 C3.475 11.495 3.475 11.495 6 12 C9.34559411 15.34559411 8.35531951 19.96355515 8.4609375 24.51953125 C9.07375204 28.47618168 10.26853693 30.14339021 13 33 C11.02 32.34 9.04 31.68 7 31 C6.67 31.66 6.34 32.32 6 33 C5.67 26.73 5.34 20.46 5 14 C-9.19 13.67 -23.38 13.34 -38 13 C-38.33 12.34 -38.66 11.68 -39 11 C-26.13 11 -13.26 11 0 11 C0 7.37 0 3.74 0 0 Z " fill="#633465" transform="translate(204,94)"/>
<path d="M0 0 C0.66 0.33 1.32 0.66 2 1 C1.67 1.66 1.34 2.32 1 3 C1.721875 2.67 2.44375 2.34 3.1875 2 C6.01697427 0.99396471 8.02895466 0.83022598 11 1 C10.01 1.33 9.02 1.66 8 2 C8 2.66 8 3.32 8 4 C9.65 4 11.3 4 13 4 C13.495 4.99 13.495 4.99 14 6 C12.53626953 5.98259766 12.53626953 5.98259766 11.04296875 5.96484375 C9.77066406 5.95582031 8.49835938 5.94679687 7.1875 5.9375 C5.92292969 5.92589844 4.65835938 5.91429687 3.35546875 5.90234375 C0.00394763 5.83840884 0.00394763 5.83840884 -3 7 C-5.01891367 7.1529051 -7.04033653 7.27377132 -9.0625 7.375 C-20.10646546 8.11759945 -20.10646546 8.11759945 -29 14 C-29.99 13.67 -30.98 13.34 -32 13 C-23.77922318 5.3111558 -14.6471201 4.69015773 -3.765625 4.9296875 C-2.89164063 4.96449219 -2.89164063 4.96449219 -2 5 C-2 4.34 -2 3.68 -2 3 C-15.86 3 -29.72 3 -44 3 C-44 2.67 -44 2.34 -44 2 C-29.48 2 -14.96 2 0 2 C0 1.34 0 0.68 0 0 Z " fill="#72406A" transform="translate(209,135)"/>
<path d="M0 0 C0.33 0 0.66 0 1 0 C1.02891546 4.45831982 1.04676981 8.91661569 1.0625 13.375 C1.07087891 14.64601562 1.07925781 15.91703125 1.08789062 17.2265625 C1.09272461 19.04414063 1.09272461 19.04414063 1.09765625 20.8984375 C1.10551147 22.57945557 1.10551147 22.57945557 1.11352539 24.29443359 C1 27 1 27 0 29 C-0.23274209 31.87910588 -0.41972757 34.74146495 -0.5625 37.625 C-0.60568359 38.42679688 -0.64886719 39.22859375 -0.69335938 40.0546875 C-0.79951457 42.0362511 -0.90026855 44.01810271 -1 46 C-1.58652344 45.67257813 -2.17304688 45.34515625 -2.77734375 45.0078125 C-5.89477148 43.59428639 -8.61449608 43.87689077 -12 44 C-12.99 44 -13.98 44 -15 44 C-15 42.35 -15 40.7 -15 39 C-14.37351563 38.95101562 -13.74703125 38.90203125 -13.1015625 38.8515625 C-12.28429687 38.77679688 -11.46703125 38.70203125 -10.625 38.625 C-9.81289062 38.55539063 -9.00078125 38.48578125 -8.1640625 38.4140625 C-5.79665809 38.17107412 -5.79665809 38.17107412 -4 36 C-3.97624074 34.0068433 -3.97624074 34.0068433 -4.375 31.875 C-4.58125 30.59625 -4.7875 29.3175 -5 28 C-3.68 28 -2.36 28 -1 28 C-0.67 18.76 -0.34 9.52 0 0 Z " fill="#974B66" transform="translate(147,162)"/>
<path d="M0 0 C-0.66 0.33 -1.32 0.66 -2 1 C-2 2.32 -2 3.64 -2 5 C-7.28 5 -12.56 5 -18 5 C-18 4.34 -18 3.68 -18 3 C-26.25 3 -34.5 3 -43 3 C-43 2.34 -43 1.68 -43 1 C-28.65299359 0.12000837 -14.37255792 -0.12713885 0 0 Z " fill="#795A7A" transform="translate(201,97)"/>
<path d="M0 0 C0.33 1.32 0.66 2.64 1 4 C6.445 3.01 6.445 3.01 12 2 C8.89448334 5.10551666 7.10801767 5.81323934 3 7 C8.445 6.505 8.445 6.505 14 6 C10.09618178 9.90381822 8.33820964 9.56244183 3 10 C3 10.66 3 11.32 3 12 C6.96 10.68 10.92 9.36 15 8 C15 8.66 15 9.32 15 10 C9.35488264 13.76341157 3.63394007 13.53649282 -3 13 C-4 12 -4 12 -4.3125 8.1875 C-4.29463537 4.87063448 -4.17180376 4.2147547 -2 1.5 C-1.34 1.005 -0.68 0.51 0 0 Z " fill="#B06259" transform="translate(158,116)"/>
<path d="M0 0 C2.87286843 1.43643421 3.05674871 3.21085132 4.20703125 6.1796875 C4.62919922 7.25476563 5.05136719 8.32984375 5.48632812 9.4375 C5.92396484 10.571875 6.36160156 11.70625 6.8125 12.875 C9.66306608 20.2062592 12.57102989 27.44710521 15.96044922 34.54858398 C17.54737032 38.29078097 18.28005586 42.00758251 19 46 C18.34 46 17.68 46 17 46 C16.76925781 45.41734375 16.53851563 44.8346875 16.30078125 44.234375 C14.01723111 38.49390903 11.6740282 32.78107505 9.2890625 27.08203125 C8.425978 25.01847467 7.56663202 22.95335067 6.7109375 20.88671875 C6.29070312 19.87222656 5.87046875 18.85773438 5.4375 17.8125 C5.03144531 16.83023437 4.62539062 15.84796875 4.20703125 14.8359375 C2.76866993 11.45648663 1.21194982 8.14052311 -0.3984375 4.83984375 C-1 3 -1 3 0 0 Z " fill="#F6CB68" transform="translate(180,244)"/>
<path d="M0 0 C2 1 2 1 3.32421875 4.4921875 C3.78679388 5.95056557 4.24086376 7.41166189 4.6875 8.875 C4.92533203 9.60847656 5.16316406 10.34195313 5.40820312 11.09765625 C7.12489686 16.62530941 7.12489686 16.62530941 6 20 C0.36585366 18.20731707 0.36585366 18.20731707 -1.875 16.9375 C-5.15638617 15.48982963 -8.44043389 15.35595661 -12 15 C-10 13 -10 13 -7 12 C-6.19436362 9.89415562 -6.19436362 9.89415562 -5.8125 7.4375 C-5.65394531 6.61121094 -5.49539062 5.78492188 -5.33203125 4.93359375 C-5.22246094 4.29550781 -5.11289062 3.65742188 -5 3 C-4.67 3 -4.34 3 -4 3 C-4 6.3 -4 9.6 -4 13 C-0.6136749 14.50930183 -0.6136749 14.50930183 3 15 C2.54947266 13.75283203 2.54947266 13.75283203 2.08984375 12.48046875 C1.70957031 11.39378906 1.32929687 10.30710938 0.9375 9.1875 C0.55464844 8.10855469 0.17179687 7.02960938 -0.22265625 5.91796875 C-1 3 -1 3 0 0 Z " fill="#4E2673" transform="translate(55,217)"/>
<path d="M0 0 C1.80336045 2.65200066 1.99787633 4.11467839 1.9375 7.375 C0.76199183 11.92029825 -0.66158758 13.74107359 -4 17 C-4.99 17 -5.98 17 -7 17 C-7.62653784 8.03702815 -7.62653784 8.03702815 -5.1875 4 C-3 2 -3 2 0 0 Z " fill="#521F6B" transform="translate(159,279)"/>
<path d="M0 0 C3.3 0.33 6.6 0.66 10 1 C11.16461426 4.49384279 11.13568319 7.33655389 11 11 C10 12 10 12 6.9375 12.0625 C5.968125 12.041875 4.99875 12.02125 4 12 C3.9175 11.21625 3.835 10.4325 3.75 9.625 C3.27193661 6.85250896 3.27193661 6.85250896 0.9375 5.6875 C0.298125 5.460625 -0.34125 5.23375 -1 5 C-0.67 3.35 -0.34 1.7 0 0 Z " fill="#BC6B58" transform="translate(173,65)"/>
<path d="M0 0 C1.32 0 2.64 0 4 0 C3.835 1.093125 3.67 2.18625 3.5 3.3125 C2.93281816 6.87525873 2.93281816 6.87525873 3 10 C5.64 11.32 8.28 12.64 11 14 C11 14.99 11 15.98 11 17 C8.83125748 16.49396008 7.00032373 16.00016187 5 15 C4.67 15.99 4.34 16.98 4 18 C3.01 18 2.02 18 1 18 C-0.35439668 15.29120665 -0.06501451 12.99066732 0 10 C-1.32 9.34 -2.64 8.68 -4 8 C-4 7.01 -4 6.02 -4 5 C-3.01 5 -2.02 5 -1 5 C-0.67 3.35 -0.34 1.7 0 0 Z " fill="#500A6E" transform="translate(64,271)"/>
<path d="M0 0 C10.8029818 -0.34910893 21.28712612 0.73300752 32 2 C31.19482422 5.83740234 31.19482422 5.83740234 29.44140625 7.30078125 C27.65871658 8.26069107 25.82979783 9.13325366 24 10 C23.34 9.67 22.68 9.34 22 9 C22.804375 8.38125 23.60875 7.7625 24.4375 7.125 C27.03874519 5.25835959 27.03874519 5.25835959 28 3 C20.08 3 12.16 3 4 3 C4.99 4.485 4.99 4.485 6 6 C3.13275314 5.42655063 2.1385485 5.1385485 0 3 C0 2.01 0 1.02 0 0 Z " fill="#451064" transform="translate(259,147)"/>
<path d="M0 0 C0.66 4.29 1.32 8.58 2 13 C3.98 13 5.96 13 8 13 C8 13.33 8 13.66 8 14 C-0.976 14.176 -0.976 14.176 -4 13 C-6.37395708 9.39813408 -7.72163656 6.32981936 -7 2 C-4 0 -4 0 0 0 Z " fill="#B4685D" transform="translate(167,154)"/>
<path d="M0 0 C0.66 0 1.32 0 2 0 C2.33 1.98 2.66 3.96 3 6 C6.465 5.505 6.465 5.505 10 5 C9.01 8.3 8.02 11.6 7 15 C6.34 15 5.68 15 5 15 C5.33 16.65 5.66 18.3 6 20 C5.34 20 4.68 20 4 20 C0.73110147 13.14115041 -0.58179863 7.59570439 0 0 Z " fill="#93B0D5" transform="translate(173,73)"/>
<path d="M0 0 C1.65 0 3.3 0 5 0 C5 2.31 5 4.62 5 7 C5.66 7.33 6.32 7.66 7 8 C3.93753253 9.78409802 1.77920727 10.22880021 -1.75 10.125 C-2.54921875 10.10695312 -3.3484375 10.08890625 -4.171875 10.0703125 C-4.77515625 10.04710937 -5.3784375 10.02390625 -6 10 C-5.67 11.65 -5.34 13.3 -5 15 C-4.34 14.67 -3.68 14.34 -3 14 C3.24793388 13.53719008 3.24793388 13.53719008 6.4375 15.5 C6.953125 15.995 7.46875 16.49 8 17 C7.67 18.32 7.34 19.64 7 21 C7 20.01 7 19.02 7 18 C3.89782379 16.16167336 1.60591321 15.52553774 -2 16 C-2.66 16.99 -3.32 17.98 -4 19 C-4.66 19 -5.32 19 -6 19 C-7.75747614 14.49646738 -8.19294408 10.82360189 -8 6 C-7.01 6.495 -7.01 6.495 -6 7 C-4.29636178 7.22622081 -2.58671299 7.40888473 -0.875 7.5625 C0.03507813 7.64628906 0.94515625 7.73007813 1.8828125 7.81640625 C2.58148438 7.87699219 3.28015625 7.93757812 4 8 C4 5.69 4 3.38 4 1 C2.68 0.67 1.36 0.34 0 0 Z " fill="#622865" transform="translate(138,191)"/>
<path d="M0 0 C0.66 0 1.32 0 2 0 C2 0.66 2 1.32 2 2 C2.66 2 3.32 2 4 2 C4.33 1.34 4.66 0.68 5 0 C5.66 0 6.32 0 7 0 C7 1.98 7 3.96 7 6 C8.98 6 10.96 6 13 6 C13 4.68 13 3.36 13 2 C13.66 2 14.32 2 15 2 C15 2.99 15 3.98 15 5 C16.65 5 18.3 5 20 5 C20 5.33 20 5.66 20 6 C13.61082755 7.23316854 7.49445859 7.06626999 1 7 C1 12.94 1 18.88 1 25 C0.67 25 0.34 25 0 25 C0 16.75 0 8.5 0 0 Z " fill="#57266D" transform="translate(148,162)"/>
<path d="M0 0 C0.99 0.33 1.98 0.66 3 1 C2.52333004 5.29002964 -0.01329938 7.08117894 -3 10 C-6.36248521 14.08096496 -8.61295173 17.83009281 -10 23 C-10.33 23 -10.66 23 -11 23 C-10.59680989 14.53300766 -8.23074741 8.04961633 -2.1875 1.9375 C-1.465625 1.298125 -0.74375 0.65875 0 0 Z " fill="#693E6B" transform="translate(191,73)"/>
<path d="M0 0 C0.66 0.33 1.32 0.66 2 1 C1.34955027 4.86027776 0.20874604 8.24660004 -1.25 11.875 C-4.11375299 19.16379405 -6.58024769 26.55540034 -9 34 C-9.99 33.67 -10.98 33.34 -12 33 C-9.94242162 26.6995531 -7.74179023 20.46415044 -5.4375 14.25 C-5.13392578 13.42628906 -4.83035156 12.60257812 -4.51757812 11.75390625 C-3.06175256 7.81461355 -1.58850455 3.88827979 0 0 Z " fill="#6D407D" transform="translate(170,247)"/>
<path d="M0 0 C-2.24331211 2.24331211 -3.27501513 2.49729812 -6.296875 3.21875 C-7.16707275 3.42814209 -8.03727051 3.63753418 -8.93383789 3.85327148 C-9.86317139 4.06669189 -10.79250488 4.2801123 -11.75 4.5 C-12.69415771 4.71922119 -13.63831543 4.93844238 -14.61108398 5.16430664 C-35.63644081 9.94255288 -35.63644081 9.94255288 -41 7 C-39.741875 6.82984375 -38.48375 6.6596875 -37.1875 6.484375 C-27.36502978 5.10897857 -17.84912233 3.41025404 -8.28515625 0.76953125 C-5.3657908 0.08568465 -2.97690389 -0.16381445 0 0 Z " fill="#783B70" transform="translate(229,160)"/>
<path d="M0 0 C2.3125 0.125 2.3125 0.125 5 1 C7.90848367 5.46659992 9.58886592 9.94000028 8.5625 15.2734375 C7.43919884 19.21775635 6.64675085 21.46367003 3.4375 24.125 C2.633125 24.41375 1.82875 24.7025 1 25 C0.34 24.67 -0.32 24.34 -1 24 C-0.195625 23.236875 0.60875 22.47375 1.4375 21.6875 C5.13994368 17.80444931 5.384019 14.50530469 5.3671875 9.36328125 C4.74240205 5.34205577 2.60117318 3.05637849 0 0 Z " fill="#541363" transform="translate(230,135)"/>
<path d="M0 0 C2.31 0.33 4.62 0.66 7 1 C7 2.32 7 3.64 7 5 C6.67 5.33 6.34 5.66 6 6 C6.99 6.33 7.98 6.66 9 7 C9 9 9 11 9 13 C6.36 13 3.72 13 1 13 C1 11 1 11 2.5 9.375 C2.995 8.92125 3.49 8.4675 4 8 C3.01 7.67 2.02 7.34 1 7 C1 6.34 1 5.68 1 5 C1.99 4.34 2.98 3.68 4 3 C2.68 2.67 1.36 2.34 0 2 C0 1.34 0 0.68 0 0 Z " fill="#5F498C" transform="translate(135,214)"/>
<path d="M0 0 C-1.95572998 1.48966515 -3.90876726 2.94014552 -5.96484375 4.2890625 C-11.45506036 8.00718939 -14.23376147 12.01534934 -17 18 C-17.99 17.67 -18.98 17.34 -20 17 C-17.23710364 11.60353434 -14.68535576 6.92556834 -10 3 C-9.34 3 -8.68 3 -8 3 C-8 2.34 -8 1.68 -8 1 C-3.375 -1.125 -3.375 -1.125 0 0 Z " fill="#501960" transform="translate(162,74)"/>
<path d="M0 0 C0 2.31 0 4.62 0 7 C-0.66 6.67 -1.32 6.34 -2 6 C-4.33294775 5.95758277 -6.66702567 5.95907063 -9 6 C-9.99 6 -10.98 6 -12 6 C-12 4.35 -12 2.7 -12 1 C-10.56274129 0.83126522 -9.12518162 0.66509263 -7.6875 0.5 C-6.88699219 0.4071875 -6.08648437 0.314375 -5.26171875 0.21875 C-3 0 -3 0 0 0 Z " fill="#BA6958" transform="translate(144,200)"/>
<path d="M0 0 C2.5625 0.1875 2.5625 0.1875 4.5625 2.1875 C4.1875 5.3125 4.1875 5.3125 3.5625 8.1875 C1.56295254 8.23004356 -0.43791636 8.22830783 -2.4375 8.1875 C-3.4375 7.1875 -3.4375 7.1875 -3.5625 4.1875 C-3.39891479 0.26145498 -3.39891479 0.26145498 0 0 Z " fill="#DCCBB3" transform="translate(185.4375,117.8125)"/>
<path d="M0 0 C4.62 0 9.24 0 14 0 C12.68 0.33 11.36 0.66 10 1 C10 2.32 10 3.64 10 5 C8.68 5.33 7.36 5.66 6 6 C6 5.34 6 4.68 6 4 C5.2575 4.350625 4.515 4.70125 3.75 5.0625 C0.8677274 6.04509293 -0.21176345 6.0326802 -3 5 C-2.34 5 -1.68 5 -1 5 C-0.67 3.35 -0.34 1.7 0 0 Z " fill="#C66661" transform="translate(211,133)"/>
<path d="M0 0 C0.33 0.66 0.66 1.32 1 2 C2.98 2 4.96 2 7 2 C7 2.33 7 2.66 7 3 C5.97777344 3.19335938 4.95554688 3.38671875 3.90234375 3.5859375 C-0.8360607 4.93976734 -3.32239174 7.96660435 -6.4375 11.625 C-6.97826172 12.23601562 -7.51902344 12.84703125 -8.07617188 13.4765625 C-9.39718786 14.97293459 -10.70046124 16.48493839 -12 18 C-13.32 17.34 -14.64 16.68 -16 16 C-15.28328125 15.61972656 -14.5665625 15.23945313 -13.828125 14.84765625 C-10.57818258 12.72442039 -8.32744948 10.33520144 -5.75 7.4375 C-4.87859375 6.46683594 -4.0071875 5.49617187 -3.109375 4.49609375 C-1.00303505 2.20251819 -1.00303505 2.20251819 0 0 Z " fill="#693B7B" transform="translate(196,210)"/>
<path d="M0 0 C0.33 0.66 0.66 1.32 1 2 C-1.7855982 5.37648267 -3.14614309 6.88016043 -7.5625 7.5 C-11.05354249 6.992212 -12.57830343 6.51856444 -15 4 C-15 3.34 -15 2.68 -15 2 C-14.00419922 2.16048828 -14.00419922 2.16048828 -12.98828125 2.32421875 C-7.29057602 3.16371708 -7.29057602 3.16371708 -1.875 1.5625 C-1.25625 1.046875 -0.6375 0.53125 0 0 Z " fill="#D6CADD" transform="translate(148,235)"/>
<path d="M0 0 C0 0.33 0 0.66 0 1 C-0.82242188 1.03738281 -1.64484375 1.07476562 -2.4921875 1.11328125 C-14.40349524 1.5013356 -14.40349524 1.5013356 -24.7734375 6.6015625 C-25.17820313 7.06304687 -25.58296875 7.52453125 -26 8 C-26.99 7.67 -27.98 7.34 -29 7 C-20.54781836 -0.90527577 -11.10671166 -1.85111861 0 0 Z " fill="#873A61" transform="translate(206,141)"/>
<path d="M0 0 C0.33 0 0.66 0 1 0 C1.99459989 7.86093409 2.53505014 13.78849772 -1 21 C-1.66 21 -2.32 21 -3 21 C-3 22.98 -3 24.96 -3 27 C-3.33 27 -3.66 27 -4 27 C-4.23527234 22.60824962 -4.2974078 19.25526925 -2.5625 15.1875 C-0.48510274 10.27817911 -0.28116489 5.27426558 0 0 Z " fill="#5C265D" transform="translate(238,90)"/>
<path d="M0 0 C1.98 0.99 3.96 1.98 6 3 C6 4.65 6 6.3 6 8 C8.31 8 10.62 8 13 8 C12.67 8.66 12.34 9.32 12 10 C9.69 10 7.38 10 5 10 C5.33 11.98 5.66 13.96 6 16 C4 14 4 14 3.8046875 11.6171875 C3.83949219 10.25980469 3.83949219 10.25980469 3.875 8.875 C3.89304688 7.96492188 3.91109375 7.05484375 3.9296875 6.1171875 C3.95289063 5.41851562 3.97609375 4.71984375 4 4 C3.34 4 2.68 4 2 4 C1.67 4.66 1.34 5.32 1 6 C0.67 4.02 0.34 2.04 0 0 Z " fill="#653470" transform="translate(171,69)"/>
<path d="M0 0 C0.36521739 5.47826087 0.36521739 5.47826087 -1.3125 7.875 C-3 9 -3 9 -6 9 C-5.38722388 6.03824877 -4.74627478 4.61941217 -3 2 C-4.65 2 -6.3 2 -8 2 C-8 1.34 -8 0.68 -8 0 C-4.71303767 -0.79953138 -3.28976808 -1.09658936 0 0 Z " fill="#4A0971" transform="translate(288,246)"/>
<path d="M0 0 C1.32 0 2.64 0 4 0 C3.67 2.31 3.34 4.62 3 7 C2.34 7 1.68 7 1 7 C1 7.99 1 8.98 1 10 C-0.32 9.67 -1.64 9.34 -3 9 C-3.33 7.68 -3.66 6.36 -4 5 C-3.01 5 -2.02 5 -1 5 C-0.67 3.35 -0.34 1.7 0 0 Z " fill="#420E62" transform="translate(64,271)"/>
<path d="M0 0 C0.67675781 0.65742187 1.35351562 1.31484375 2.05078125 1.9921875 C5.74719632 4.5086873 7.7727607 4.35759954 12.1875 4.125 C14.4560854 4.01572782 16.7291419 3.95970594 19 4 C19.66 4.66 20.32 5.32 21 6 C14.662941 7.6898824 7.69902176 8.34999626 1.875 5 C0.92625 4.34 -0.0225 3.68 -1 3 C-0.67 2.01 -0.34 1.02 0 0 Z " fill="#813E5C" transform="translate(131,126)"/>
<path d="M0 0 C0.33 0 0.66 0 1 0 C1.64864217 3.51708199 1.84158283 6.50495602 1 10 C-1.96058758 13.25145233 -5.30534789 15.63806169 -9 18 C-9 15 -9 15 -8 13 C-7.34 13 -6.68 13 -6 13 C-5.67 12.01 -5.34 11.02 -5 10 C-3.68 9.67 -2.36 9.34 -1 9 C-0.67 6.03 -0.34 3.06 0 0 Z " fill="#5B146A" transform="translate(130,118)"/>
<path d="M0 0 C0.33 0 0.66 0 1 0 C1.57374185 6.88490225 0.4753869 11.02667877 -3 17 C-4.58158962 13.99112219 -5.43945339 11.36327963 -6 8 C-5.34 8 -4.68 8 -4 8 C-4 8.66 -4 9.32 -4 10 C-3.34 10 -2.68 10 -2 10 C-1.34 6.7 -0.68 3.4 0 0 Z " fill="#4A145D" transform="translate(224,88)"/>
<path d="M0 0 C0.99 0 1.98 0 3 0 C3 1.32 3 2.64 3 4 C4.32 3.67 5.64 3.34 7 3 C7.33 3.99 7.66 4.98 8 6 C5.35261084 7.4606285 4.10551666 8 1 8 C1 7.34 1 6.68 1 6 C0.34 6 -0.32 6 -1 6 C-0.67 4.02 -0.34 2.04 0 0 Z " fill="#430C67" transform="translate(290,240)"/>
<path d="M0 0 C0 0.99 0 1.98 0 3 C1.85625 3.185625 1.85625 3.185625 3.75 3.375 C6.8762197 3.75746305 9.28879237 4.30549523 12 6 C6.93683317 6.15639125 2.49601562 5.62766071 -2.4375 4.5 C-3.67371094 4.2215625 -4.90992188 3.943125 -6.18359375 3.65625 C-7.11300781 3.4396875 -8.04242188 3.223125 -9 3 C-9 2.34 -9 1.68 -9 1 C-5.94152152 0.45627049 -3.11227195 0 0 0 Z " fill="#A85D6F" transform="translate(180,163)"/>
<path d="M0 0 C1.32 0.66 2.64 1.32 4 2 C4 4.64 4 7.28 4 10 C2.0625 9.375 2.0625 9.375 0 8 C-1.40540541 2.81081081 -1.40540541 2.81081081 0 0 Z " fill="#E7B144" transform="translate(167,69)"/>
<path d="M0 0 C2 1 2 1 3.0703125 3.94140625 C3.41835938 5.13636719 3.76640625 6.33132812 4.125 7.5625 C4.47820313 8.76003906 4.83140625 9.95757812 5.1953125 11.19140625 C5.46085937 12.11824219 5.72640625 13.04507813 6 14 C5.01 14.33 4.02 14.66 3 15 C2.30151736 13.06643218 1.61655186 11.12797702 0.9375 9.1875 C0.55464844 8.10855469 0.17179687 7.02960938 -0.22265625 5.91796875 C-1 3 -1 3 0 0 Z " fill="#562376" transform="translate(55,217)"/>
<path d="M0 0 C0.33 1.32 0.66 2.64 1 4 C3.31 4 5.62 4 8 4 C6.66666667 4.66666667 5.33333333 5.33333333 4 6 C3.319375 6.37125 2.63875 6.7425 1.9375 7.125 C0 8 0 8 -3 8 C-2.25 2.25 -2.25 2.25 0 0 Z " fill="#421060" transform="translate(40,228)"/>
<path d="M0 0 C-0.99 2.97 -1.98 5.94 -3 9 C-5.55028983 7.72485508 -5.93081711 6.59658703 -7 4 C-7 3.01 -7 2.02 -7 1 C-2.25 0 -2.25 0 0 0 Z " fill="#EBE6EE" transform="translate(183,78)"/>
<path d="M0 0 C0.6328125 1.84765625 0.6328125 1.84765625 1 4 C-1.125 6.4375 -1.125 6.4375 -4 9 C-4.928125 9.928125 -5.85625 10.85625 -6.8125 11.8125 C-7.534375 12.534375 -8.25625 13.25625 -9 14 C-7.64002446 7.95566426 -4.14348206 4.36505864 0 0 Z " fill="#8BA8D0" transform="translate(191,73)"/>
<path d="M0 0 C0.66 0 1.32 0 2 0 C2 0.66 2 1.32 2 2 C2.763125 2.12375 3.52625 2.2475 4.3125 2.375 C7 3 7 3 10 5 C9.67 5.66 9.34 6.32 9 7 C7.88625 6.2884375 7.88625 6.2884375 6.75 5.5625 C4.38949985 4.22130673 2.63351523 3.487688 0 3 C-0.33 5.64 -0.66 8.28 -1 11 C-1.33 11 -1.66 11 -2 11 C-2.05399736 9.54207116 -2.09279177 8.08357288 -2.125 6.625 C-2.15980469 5.40683594 -2.15980469 5.40683594 -2.1953125 4.1640625 C-2 2 -2 2 0 0 Z " fill="#632D5B" transform="translate(227,83)"/>
<path d="M0 0 C0 0.99 0 1.98 0 3 C-3.3 3.33 -6.6 3.66 -10 4 C-9 1 -9 1 -6.6875 -0.25 C-3.90126985 -1.0275526 -2.66561622 -0.98726527 0 0 Z " fill="#B65B61" transform="translate(178,150)"/>
<path d="M0 0 C0.66 0.33 1.32 0.66 2 1 C1.50757813 1.40089844 1.01515625 1.80179687 0.5078125 2.21484375 C-1.42200132 4.49962332 -1.28965113 5.62299312 -1.125 8.5625 C-0.91479821 12.82959641 -0.91479821 12.82959641 -2 15 C-3.32 14.67 -4.64 14.34 -6 14 C-5.01 14 -4.02 14 -3 14 C-3.33 13.01 -3.66 12.02 -4 11 C-4.57289003 4.69820972 -4.57289003 4.69820972 -2 1.5625 C-1.34 1.046875 -0.68 0.53125 0 0 Z " fill="#6D325B" transform="translate(156,116)"/>
<path d="M0 0 C-1.11328125 1.984375 -1.11328125 1.984375 -3 4 C-5.91796875 4.390625 -5.91796875 4.390625 -9.1875 4.25 C-10.27417969 4.21390625 -11.36085937 4.1778125 -12.48046875 4.140625 C-13.31191406 4.09421875 -14.14335937 4.0478125 -15 4 C-12.19836511 2.13224341 -10.11958197 1.27321694 -6.9375 0.3125 C-6.05964844 0.04050781 -5.18179688 -0.23148437 -4.27734375 -0.51171875 C-2 -1 -2 -1 0 0 Z " fill="#4C1978" transform="translate(212,322)"/>
<path d="M0 0 C0.66 0.99 1.32 1.98 2 3 C1.30512852 4.68754502 0.59830447 6.3722058 -0.1953125 8.015625 C-1.51859116 11.27885588 -1.69361272 14.50718495 -2 18 C-2.66 17.67 -3.32 17.34 -4 17 C-4 14.03 -4 11.06 -4 8 C-3.34 8 -2.68 8 -2 8 C-1.34 5.36 -0.68 2.72 0 0 Z " fill="#542672" transform="translate(182,80)"/>
<path d="M0 0 C0.33 0 0.66 0 1 0 C1 5.94 1 11.88 1 18 C0.67 18 0.34 18 0 18 C0 15.03 0 12.06 0 9 C-0.66 9 -1.32 9 -2 9 C-1.125 1.125 -1.125 1.125 0 0 Z " fill="#440D5E" transform="translate(239,81)"/>
<path d="M0 0 C2.31 0 4.62 0 7 0 C7 1.32 7 2.64 7 4 C4.69 4 2.38 4 0 4 C0 2.68 0 1.36 0 0 Z " fill="#440E62" transform="translate(101,315)"/>
<path d="M0 0 C0.66 0 1.32 0 2 0 C2.32332002 4.63425362 1.8644432 7.28683289 -1 11 C-1.99 11.33 -2.98 11.66 -4 12 C-4.66 11.34 -5.32 10.68 -6 10 C-5.38125 9.835 -4.7625 9.67 -4.125 9.5 C-0.72243051 7.09818625 -0.77387974 3.99837866 0 0 Z " fill="#694971" transform="translate(184,232)"/>
<path d="M0 0 C1.32 0 2.64 0 4 0 C4 1.98 4 3.96 4 6 C2.68 6.33 1.36 6.66 0 7 C0 4.69 0 2.38 0 0 Z " fill="#480D63" transform="translate(319,199)"/>
<path d="M0 0 C0.33 0 0.66 0 1 0 C1.08160748 1.89510699 1.13946459 3.79124504 1.1875 5.6875 C1.22230469 6.74324219 1.25710937 7.79898438 1.29296875 8.88671875 C0.96666615 12.35422768 -0.00969875 14.18432448 -2 17 C-3.59190467 13.81619067 -2.28749598 10.71923676 -1.5625 7.375 C-1.41490234 6.66859375 -1.26730469 5.9621875 -1.11523438 5.234375 C-0.74950507 3.48831251 -0.37552879 1.74398116 0 0 Z " fill="#430D63" transform="translate(235,111)"/>
<path d="M0 0 C0.33 1.32 0.66 2.64 1 4 C0.360625 4.391875 -0.27875 4.78375 -0.9375 5.1875 C-3.43778819 7.38472296 -3.64950425 8.75791433 -4 12 C-4.33 12 -4.66 12 -5 12 C-5 10.35 -5 8.7 -5 7 C-5.66 6.67 -6.32 6.34 -7 6 C-6.360625 5.731875 -5.72125 5.46375 -5.0625 5.1875 C-2.66868314 4.11332248 -2.66868314 4.11332248 -2 1 C-1.34 0.67 -0.68 0.34 0 0 Z " fill="#5A2065" transform="translate(242,75)"/>
<path d="M0 0 C2.38202314 0.69717751 4.39796142 1.54747857 6.5625 2.75 C6.2325 3.74 5.9025 4.73 5.5625 5.75 C1.9325 4.43 -1.6975 3.11 -5.4375 1.75 C-2.4375 -0.25 -2.4375 -0.25 0 0 Z " fill="#562064" transform="translate(197.4375,72.25)"/>
<path d="M0 0 C0.33 0 0.66 0 1 0 C1.08636719 0.69867188 1.17273438 1.39734375 1.26171875 2.1171875 C1.68204824 4.83968863 2.13743453 7.38196209 3 10 C5.45748398 11.75568004 5.45748398 11.75568004 8 12 C4.88407501 13.03864166 3.9737344 13.09036928 1 12 C-0.26237731 9.47524538 -0.09856404 7.68799534 -0.0625 4.875 C-0.05347656 3.96492187 -0.04445312 3.05484375 -0.03515625 2.1171875 C-0.02355469 1.41851562 -0.01195312 0.71984375 0 0 Z " fill="#5E377C" transform="translate(130,225)"/>
<path d="M0 0 C0.99 0 1.98 0 3 0 C2.9375 1.75 2.9375 1.75 2 4 C-0.25123006 5.72518887 -2.40134903 6.76906007 -5 8 C-5.66 7.67 -6.32 7.34 -7 7 C-6.21625 6.401875 -5.4325 5.80375 -4.625 5.1875 C-1.85425677 3.08914751 -1.85425677 3.08914751 0 0 Z " fill="#481A6F" transform="translate(288,149)"/>
<path d="M0 0 C1.98 0.495 1.98 0.495 4 1 C3.67 2.65 3.34 4.3 3 6 C1.68 5.67 0.36 5.34 -1 5 C-0.67 3.35 -0.34 1.7 0 0 Z " fill="#9E9088" transform="translate(184,119)"/>
<path d="M0 0 C2.31 0.33 4.62 0.66 7 1 C7 1.99 7 2.98 7 4 C4.69 4 2.38 4 0 4 C0 2.68 0 1.36 0 0 Z " fill="#540C70" transform="translate(88,289)"/>
<path d="M0 0 C1.875 0.1875 1.875 0.1875 4 1 C5.25 3.5625 5.25 3.5625 6 6 C4.68 6 3.36 6 2 6 C0 3 0 3 0 0 Z " fill="#430C5A" transform="translate(53,267)"/>
<path d="M0 0 C0.99 0 1.98 0 3 0 C2.125 4.75 2.125 4.75 1 7 C0.01 7 -0.98 7 -2 7 C-1.125 1.125 -1.125 1.125 0 0 Z " fill="#3F0B6A" transform="translate(73,251)"/>
<path d="M0 0 C1.32 0 2.64 0 4 0 C3.42655063 2.86724686 3.1385485 3.8614515 1 6 C0.01 6 -0.98 6 -2 6 C-1.49396008 3.83125748 -1.00016187 2.00032373 0 0 Z " fill="#400B5B" transform="translate(311,230)"/>
<path d="M0 0 C1.32 0 2.64 0 4 0 C3.67 2.31 3.34 4.62 3 7 C2.01 7 1.02 7 0 7 C0 4.69 0 2.38 0 0 Z " fill="#450B65" transform="translate(292,229)"/>
<path d="M0 0 C0.58265625 0.21527344 1.1653125 0.43054688 1.765625 0.65234375 C0.50322788 1.5189299 -0.76965001 2.37026434 -2.046875 3.21484375 C-3.10841797 3.92833984 -3.10841797 3.92833984 -4.19140625 4.65625 C-6.234375 5.65234375 -6.234375 5.65234375 -9.234375 4.65234375 C-8.16330383 3.78285058 -7.07691556 2.9322017 -5.984375 2.08984375 C-5.38109375 1.61417969 -4.7778125 1.13851562 -4.15625 0.6484375 C-2.234375 -0.34765625 -2.234375 -0.34765625 0 0 Z " fill="#704480" transform="translate(240.234375,197.34765625)"/>
<path d="M0 0 C2.375 0.25 2.375 0.25 5 1 C6.3125 3.0625 6.3125 3.0625 7 5 C3 5 3 5 1.25 3.625 C0 2 0 2 0 0 Z " fill="#3E116C" transform="translate(304,171)"/>
<path d="M0 0 C2.375 0.25 2.375 0.25 5 1 C6.3125 3.0625 6.3125 3.0625 7 5 C4.625 5.125 4.625 5.125 2 5 C1.34 4.34 0.68 3.68 0 3 C0 2.01 0 1.02 0 0 Z " fill="#3B0B77" transform="translate(296,164)"/>
<path d="M0 0 C0 0.99 0 1.98 0 3 C-4.455 3.495 -4.455 3.495 -9 4 C-9 3.01 -9 2.02 -9 1 C-5.846632 0.29925156 -3.27275026 0 0 0 Z " fill="#EE8261" transform="translate(179,159)"/>
<path d="M0 0 C2.64 0.33 5.28 0.66 8 1 C8 1.99 8 2.98 8 4 C5.36 3.67 2.72 3.34 0 3 C0 2.01 0 1.02 0 0 Z " fill="#4A0A66" transform="translate(90,314)"/>
<path d="M0 0 C2 1 4 2 6 3 C5.67 4.32 5.34 5.64 5 7 C2 6 2 6 0 3 C0 2.01 0 1.02 0 0 Z " fill="#400E66" transform="translate(73,301)"/>
<path d="M0 0 C0.99 0.33 1.98 0.66 3 1 C3.33 2.98 3.66 4.96 4 7 C3.01 7 2.02 7 1 7 C-1 4 -1 4 -0.625 1.8125 C-0.41875 1.214375 -0.2125 0.61625 0 0 Z " fill="#480B63" transform="translate(68,292)"/>
<path d="M0 0 C-1.47559669 4.42679007 -3.90057368 4.91432696 -8 7 C-8.66 7 -9.32 7 -10 7 C-8.60449526 2.81348579 -4.64858615 0 0 0 Z " fill="#6C3E7D" transform="translate(120,267)"/>
<path d="M0 0 C0 1.32 0 2.64 0 4 C-1.98 4.66 -3.96 5.32 -6 6 C-6 4.68 -6 3.36 -6 2 C-2.25 0 -2.25 0 0 0 Z " fill="#471162" transform="translate(280,255)"/>
<path d="M0 0 C0.66 0 1.32 0 2 0 C2 0.66 2 1.32 2 2 C2.66 2 3.32 2 4 2 C4.66 1.34 5.32 0.68 6 0 C6 1.32 6 2.64 6 4 C5.34 4 4.68 4 4 4 C4 4.66 4 5.32 4 6 C2.68 5.67 1.36 5.34 0 5 C0 3.35 0 1.7 0 0 Z " fill="#6B639F" transform="translate(148,162)"/>
<path d="M0 0 C0.66 0 1.32 0 2 0 C6 6.625 6 6.625 6 10 C5.34 10 4.68 10 4 10 C0 3.375 0 3.375 0 0 Z " fill="#6B3E7C" transform="translate(208,291)"/>
<path d="M0 0 C4.43090471 1.20842856 6.98112756 2.51668565 10 6 C6.05879291 5.43697042 3.2491277 4.3208055 0 2 C0 1.34 0 0.68 0 0 Z " fill="#6C3E7D" transform="translate(232,267)"/>
<path d="M0 0 C1.32 0 2.64 0 4 0 C3.1875 2.9375 3.1875 2.9375 2 6 C1.01 6.33 0.02 6.66 -1 7 C-0.67 4.69 -0.34 2.38 0 0 Z " fill="#410A60" transform="translate(67,261)"/>
<path d="M0 0 C1.32 0 2.64 0 4 0 C4 2.31 4 4.62 4 7 C3.01 6.67 2.02 6.34 1 6 C0.67 4.02 0.34 2.04 0 0 Z " fill="#440E5E" transform="translate(49,257)"/>
<path d="M0 0 C2.97 0 5.94 0 9 0 C9 0.66 9 1.32 9 2 C6.69 2 4.38 2 2 2 C1.67 2.99 1.34 3.98 1 5 C0.67 5 0.34 5 0 5 C0 3.35 0 1.7 0 0 Z " fill="#5C3669" transform="translate(171,243)"/>
<path d="M0 0 C-1 3 -1 3 -4 5 C-6.1875 4.625 -6.1875 4.625 -8 4 C-4.5 0 -4.5 0 0 0 Z " fill="#480B6C" transform="translate(308,238)"/>
<path d="M0 0 C0.66 0 1.32 0 2 0 C1.67 2.31 1.34 4.62 1 7 C0.01 7 -0.98 7 -2 7 C-2.125 4.625 -2.125 4.625 -2 2 C-1.34 1.34 -0.68 0.68 0 0 Z " fill="#470A62" transform="translate(317,220)"/>
<path d="M0 0 C2.375 0.25 2.375 0.25 5 1 C6.3125 3.0625 6.3125 3.0625 7 5 C3 5 3 5 1.25 3.625 C0 2 0 2 0 0 Z " fill="#530B6A" transform="translate(285,209)"/>
<path d="M0 0 C0.99 0 1.98 0 3 0 C3.66 1.98 4.32 3.96 5 6 C4.01 6 3.02 6 2 6 C0.3125 3.5 0.3125 3.5 -1 1 C-0.67 0.67 -0.34 0.34 0 0 Z " fill="#450A66" transform="translate(312,179)"/>
<path d="M0 0 C1.65 0.33 3.3 0.66 5 1 C2.75 3.0625 2.75 3.0625 0 5 C-2.3125 4.75 -2.3125 4.75 -4 4 C-3.34 4 -2.68 4 -2 4 C-1.34 2.68 -0.68 1.36 0 0 Z " fill="#EE8161" transform="translate(212,134)"/>
<path d="M0 0 C3.99455527 0.61454696 6.74466336 2.70646737 10 5 C7 6 7 6 5.17578125 5.22265625 C3.45052083 4.1484375 1.72526042 3.07421875 0 2 C0 1.34 0 0.68 0 0 Z " fill="#683A7A" transform="translate(110,197)"/>
<path d="M0 0 C0.66 0 1.32 0 2 0 C1.38545304 3.99455527 -0.70646737 6.74466336 -3 10 C-4 7 -4 7 -3.22265625 5.17578125 C-2.1484375 3.45052083 -1.07421875 1.72526042 0 0 Z " fill="#683A7A" transform="translate(212,169)"/>
<path d="M0 0 C0.66 0.99 1.32 1.98 2 3 C0.8125 5.4375 0.8125 5.4375 -1 8 C-3.6875 8.8125 -3.6875 8.8125 -6 9 C-4.73046875 7.53515625 -3.4609375 6.0703125 -2.19140625 4.60546875 C-0.79128769 2.89287029 -0.79128769 2.89287029 0 0 Z " fill="#651E69" transform="translate(235,151)"/>
<path d="M0 0 C0 0.99 0 1.98 0 3 C-4.455 3.495 -4.455 3.495 -9 4 C-9 3.34 -9 2.68 -9 2 C-2.25 0 -2.25 0 0 0 Z " fill="#F68661" transform="translate(178,154)"/>
<path d="M0 0 C0.99 0.495 0.99 0.495 2 1 C2 1.66 2 2.32 2 3 C2.928125 3.12375 2.928125 3.12375 3.875 3.25 C6 4 6 4 7.25 6.0625 C7.4975 6.701875 7.745 7.34125 8 8 C4.65902615 7.40339753 2.45699871 6.36924875 0 4 C0 2.68 0 1.36 0 0 Z " fill="#551272" transform="translate(204,75)"/>
<path d="M0 0 C0.66 0 1.32 0 2 0 C0.79157144 4.43090471 -0.51668565 6.98112756 -4 10 C-3.43697042 6.05879291 -2.3208055 3.2491277 0 0 Z " fill="#67397A" transform="translate(142,291)"/>
<path d="M0 0 C1.32 0 2.64 0 4 0 C2.9024777 2.99324263 2.32317108 3.84610901 -0.625 5.25 C-1.40875 5.4975 -2.1925 5.745 -3 6 C-2 4 -1 2 0 0 Z M-5 6 C-4.34 6.33 -3.68 6.66 -3 7 C-3.99 7 -4.98 7 -6 7 C-5.67 6.67 -5.34 6.34 -5 6 Z " fill="#4B156D" transform="translate(250,290)"/>
<path d="M0 0 C0.66 0 1.32 0 2 0 C2.33 2.31 2.66 4.62 3 7 C2.01 7 1.02 7 0 7 C-0.38133299 5.0085944 -0.71325582 3.00720923 -1 1 C-0.67 0.67 -0.34 0.34 0 0 Z " fill="#470A75" transform="translate(48,246)"/>
<path d="M0 0 C0.66 0 1.32 0 2 0 C1.39009109 3.55780196 0.4216319 6.6828589 -1 10 C-1.66 9.01 -2.32 8.02 -3 7 C-1.625 3.3125 -1.625 3.3125 0 0 Z " fill="#431471" transform="translate(43,220)"/>
<path d="M0 0 C0.99 0 1.98 0 3 0 C3.33 2.31 3.66 4.62 4 7 C3.01 7 2.02 7 1 7 C0.67 4.69 0.34 2.38 0 0 Z " fill="#450D62" transform="translate(291,218)"/>
<path d="M0 0 C2.31 0.33 4.62 0.66 7 1 C7 1.99 7 2.98 7 4 C4.03 3.505 4.03 3.505 1 3 C0.67 2.01 0.34 1.02 0 0 Z " fill="#430C5F" transform="translate(276,204)"/>
<path d="M0 0 C0.99 0 1.98 0 3 0 C3 2.31 3 4.62 3 7 C2.01 7 1.02 7 0 7 C0 4.69 0 2.38 0 0 Z " fill="#DF7761" transform="translate(139,192)"/>
<path d="M0 0 C0.99 0.33 1.98 0.66 3 1 C3.33 2.98 3.66 4.96 4 7 C3.01 7 2.02 7 1 7 C0.67 4.69 0.34 2.38 0 0 Z " fill="#470C62" transform="translate(317,188)"/>
<path d="M0 0 C-0.33 0.99 -0.66 1.98 -1 3 C-2.98 3.33 -4.96 3.66 -7 4 C-7 3.01 -7 2.02 -7 1 C-4 0 -4 0 0 0 Z " fill="#430C5F" transform="translate(119,314)"/>
<path d="M0 0 C2.16874252 0.50603992 3.99967627 0.99983813 6 2 C6 2.99 6 3.98 6 5 C4.35 4.67 2.7 4.34 1 4 C0.67 2.68 0.34 1.36 0 0 Z " fill="#450C63" transform="translate(81,309)"/>
<path d="M0 0 C4.75 0.875 4.75 0.875 7 2 C7 2.66 7 3.32 7 4 C4.69 3.67 2.38 3.34 0 3 C0 2.01 0 1.02 0 0 Z " fill="#410F5D" transform="translate(78,287)"/>
<path d="M0 0 C0.99 0 1.98 0 3 0 C3 1.98 3 3.96 3 6 C2.01 6.33 1.02 6.66 0 7 C0 4.69 0 2.38 0 0 Z " fill="#461261" transform="translate(47,236)"/>
<path d="M0 0 C0.99 0.33 1.98 0.66 3 1 C4.1875 4.5625 4.1875 4.5625 5 8 C3.0625 7.375 3.0625 7.375 1 6 C0.25 2.875 0.25 2.875 0 0 Z " fill="#F3C96A" transform="translate(168,218)"/>
<path d="M0 0 C0.33 0 0.66 0 1 0 C1 3.3 1 6.6 1 10 C-0.98 10.99 -0.98 10.99 -3 12 C-3 11.01 -3 10.02 -3 9 C-2.34 9 -1.68 9 -1 9 C-0.67 6.03 -0.34 3.06 0 0 Z " fill="#642C5B" transform="translate(130,118)"/>
<path d="M0 0 C0.66 0 1.32 0 2 0 C1.88637738 1.4800841 1.75877092 2.95910074 1.625 4.4375 C1.52058594 5.67306641 1.52058594 5.67306641 1.4140625 6.93359375 C1.27742187 7.61550781 1.14078125 8.29742187 1 9 C0.01 9.495 0.01 9.495 -1 10 C-1.125 2.25 -1.125 2.25 0 0 Z " fill="#560B6F" transform="translate(129,115)"/>
<path d="M0 0 C0.99 0.33 1.98 0.66 3 1 C3.33 3.31 3.66 5.62 4 8 C2.68 7.34 1.36 6.68 0 6 C0 4.02 0 2.04 0 0 Z " fill="#4D1460" transform="translate(230,65)"/>
<path d="M0 0 C0.99 0 1.98 0 3 0 C2.67 2.31 2.34 4.62 2 7 C1.34 7 0.68 7 0 7 C0 4.69 0 2.38 0 0 Z " fill="#440C65" transform="translate(319,210)"/>
<path d="M0 0 C2.31 1.98 4.62 3.96 7 6 C6.01 6.495 6.01 6.495 5 7 C2.375 5.8125 2.375 5.8125 0 4 C0 2.68 0 1.36 0 0 Z " fill="#52267A" transform="translate(270,158)"/>
<path d="M0 0 C2.475 0.495 2.475 0.495 5 1 C5.33 2.32 5.66 3.64 6 5 C3.5625 4.1875 3.5625 4.1875 1 3 C0.67 2.01 0.34 1.02 0 0 Z " fill="#430E61" transform="translate(287,159)"/>
<path d="M0 0 C2.88575819 0.39803561 3.82189513 0.79009069 5.75 3.0625 C6.1625 3.701875 6.575 4.34125 7 5 C5.02 4.34 3.04 3.68 1 3 C0.67 3.66 0.34 4.32 0 5 C0 3.35 0 1.7 0 0 Z " fill="#5D295F" transform="translate(210,122)"/>
<path d="M0 0 C0.515625 0.391875 1.03125 0.78375 1.5625 1.1875 C-5.86607143 3.61607143 -5.86607143 3.61607143 -9.4375 2.1875 C-3.0375 -1.0125 -3.0375 -1.0125 0 0 Z " fill="#571E60" transform="translate(169.4375,120.8125)"/>
<path d="M0 0 C2.475 0.495 2.475 0.495 5 1 C5 1.66 5 2.32 5 3 C6.65 3 8.3 3 10 3 C10 3.33 10 3.66 10 4 C3.375 4.25 3.375 4.25 0 2 C0 1.34 0 0.68 0 0 Z " fill="#E5DEE9" transform="translate(133,237)"/>
<path d="M0 0 C0.33 0.66 0.66 1.32 1 2 C0.67 2.99 0.34 3.98 0 5 C-0.66 5 -1.32 5 -2 5 C-2 6.98 -2 8.96 -2 11 C-2.33 11 -2.66 11 -3 11 C-3.36923077 3.49230769 -3.36923077 3.49230769 -1.5 1 C-1.005 0.67 -0.51 0.34 0 0 Z " fill="#6D335C" transform="translate(237,106)"/>
<path d="M0 0 C0.33 0 0.66 0 1 0 C0.125 6.75 0.125 6.75 -1 9 C-1.99 8.67 -2.98 8.34 -4 8 C-2.68 5.36 -1.36 2.72 0 0 Z " fill="#47145D" transform="translate(146,83)"/>
<path d="M0 0 C2.52259061 1.97420135 2.9929808 2.96745642 3.6875 6.1875 C3.790625 7.115625 3.89375 8.04375 4 9 C1.47740939 7.02579865 1.0070192 6.03254358 0.3125 2.8125 C0.209375 1.884375 0.10625 0.95625 0 0 Z " fill="#F5C75A" transform="translate(189,267)"/>
<path d="M0 0 C-0.33 0.66 -0.66 1.32 -1 2 C-3.31 2 -5.62 2 -8 2 C-8 1.34 -8 0.68 -8 0 C-4.71303767 -0.79953138 -3.28976808 -1.09658936 0 0 Z " fill="#490C63" transform="translate(288,246)"/>
<path d="M0 0 C1.875 0.1875 1.875 0.1875 4 1 C5.25 3.5625 5.25 3.5625 6 6 C5.01 6.495 5.01 6.495 4 7 C0 2.25 0 2.25 0 0 Z " fill="#5E3A64" transform="translate(179,226)"/>
<path d="M0 0 C0.99 0.33 1.98 0.66 3 1 C3.33 2.98 3.66 4.96 4 7 C3.01 7 2.02 7 1 7 C0.67 4.69 0.34 2.38 0 0 Z " fill="#50167B" transform="translate(57,225)"/>
<path d="M0 0 C2.12508244 3.18762365 2.5020163 5.26512223 3 9 C2.01 9.495 2.01 9.495 1 10 C-0.1577506 6.52674819 -0.06866652 3.63932552 0 0 Z " fill="#42125F" transform="translate(53,208)"/>
<path d="M0 0 C5.75 1.75 5.75 1.75 8 4 C5.36 3.67 2.72 3.34 0 3 C0 2.01 0 1.02 0 0 Z " fill="#4B1A6E" transform="translate(225,131)"/>
</svg>
